<svg width="395" height="88" viewBox="0 0 395 88" fill="none" xmlns="http://www.w3.org/2000/svg">
<rect width="395" height="88" rx="20" fill="#F3F5FC"/>
<path d="M72.032 53.288C70.736 53.288 69.528 53.08 68.408 52.664C67.304 52.232 66.344 51.624 65.528 50.84C64.712 50.056 64.072 49.136 63.608 48.08C63.16 47.024 62.936 45.864 62.936 44.6C62.936 43.336 63.16 42.176 63.608 41.12C64.072 40.064 64.712 39.144 65.528 38.36C66.36 37.576 67.328 36.976 68.432 36.56C69.536 36.128 70.744 35.912 72.056 35.912C73.512 35.912 74.824 36.168 75.992 36.68C77.176 37.176 78.168 37.912 78.968 38.888L76.472 41.192C75.896 40.536 75.256 40.048 74.552 39.728C73.848 39.392 73.08 39.224 72.248 39.224C71.464 39.224 70.744 39.352 70.088 39.608C69.432 39.864 68.864 40.232 68.384 40.712C67.904 41.192 67.528 41.76 67.256 42.416C67 43.072 66.872 43.8 66.872 44.6C66.872 45.4 67 46.128 67.256 46.784C67.528 47.44 67.904 48.008 68.384 48.488C68.864 48.968 69.432 49.336 70.088 49.592C70.744 49.848 71.464 49.976 72.248 49.976C73.08 49.976 73.848 49.816 74.552 49.496C75.256 49.16 75.896 48.656 76.472 47.984L78.968 50.288C78.168 51.264 77.176 52.008 75.992 52.52C74.824 53.032 73.504 53.288 72.032 53.288ZM89.402 53.288C88.074 53.288 86.842 53.072 85.706 52.64C84.586 52.208 83.61 51.6 82.778 50.816C81.962 50.032 81.322 49.112 80.858 48.056C80.41 47 80.186 45.848 80.186 44.6C80.186 43.352 80.41 42.2 80.858 41.144C81.322 40.088 81.97 39.168 82.802 38.384C83.634 37.6 84.61 36.992 85.73 36.56C86.85 36.128 88.066 35.912 89.378 35.912C90.706 35.912 91.922 36.128 93.026 36.56C94.146 36.992 95.114 37.6 95.93 38.384C96.762 39.168 97.41 40.088 97.874 41.144C98.338 42.184 98.57 43.336 98.57 44.6C98.57 45.848 98.338 47.008 97.874 48.08C97.41 49.136 96.762 50.056 95.93 50.84C95.114 51.608 94.146 52.208 93.026 52.64C91.922 53.072 90.714 53.288 89.402 53.288ZM89.378 49.976C90.13 49.976 90.818 49.848 91.442 49.592C92.082 49.336 92.642 48.968 93.122 48.488C93.602 48.008 93.97 47.44 94.226 46.784C94.498 46.128 94.634 45.4 94.634 44.6C94.634 43.8 94.498 43.072 94.226 42.416C93.97 41.76 93.602 41.192 93.122 40.712C92.658 40.232 92.106 39.864 91.466 39.608C90.826 39.352 90.13 39.224 89.378 39.224C88.626 39.224 87.93 39.352 87.29 39.608C86.666 39.864 86.114 40.232 85.634 40.712C85.154 41.192 84.778 41.76 84.506 42.416C84.25 43.072 84.122 43.8 84.122 44.6C84.122 45.384 84.25 46.112 84.506 46.784C84.778 47.44 85.146 48.008 85.61 48.488C86.09 48.968 86.65 49.336 87.29 49.592C87.93 49.848 88.626 49.976 89.378 49.976ZM101.492 53V36.2H104.708L111.86 48.056H110.156L117.188 36.2H120.38L120.428 53H116.78L116.756 41.792H117.428L111.812 51.224H110.06L104.324 41.792H105.14V53H101.492ZM124.414 53V36.2H128.302V53H124.414ZM135.865 42.968H143.953V45.992H135.865V42.968ZM136.153 49.88H145.297V53H132.289V36.2H144.985V39.32H136.153V49.88ZM148.39 53V36.2H151.606L161.518 48.296H159.958V36.2H163.798V53H160.606L150.67 40.904H152.23V53H148.39ZM166.693 53V50.48L177.085 37.952L177.565 39.368H166.885V36.2H181.021V38.72L170.653 51.248L170.173 49.832H181.381V53H166.693ZM181.667 53L189.155 36.2H192.995L200.507 53H196.427L190.283 38.168H191.819L185.651 53H181.667ZM185.411 49.4L186.443 46.448H195.083L196.139 49.4H185.411ZM213.223 53V46.136L214.111 48.488L206.719 36.2H210.847L216.511 45.632H214.135L219.823 36.2H223.639L216.247 48.488L217.111 46.136V53H213.223ZM222.026 53L229.514 36.2H233.354L240.866 53H236.786L230.642 38.168H232.178L226.01 53H222.026ZM225.77 49.4L226.802 46.448H235.442L236.498 49.4H225.77ZM242.609 47.168L241.865 36.2H246.329L245.585 47.168H242.609ZM244.097 53.192C243.425 53.192 242.873 52.976 242.441 52.544C242.009 52.112 241.793 51.6 241.793 51.008C241.793 50.4 242.009 49.896 242.441 49.496C242.873 49.08 243.425 48.872 244.097 48.872C244.785 48.872 245.337 49.08 245.753 49.496C246.185 49.896 246.401 50.4 246.401 51.008C246.401 51.6 246.185 52.112 245.753 52.544C245.337 52.976 244.785 53.192 244.097 53.192Z" fill="#0A3871"/>
<path d="M272 42.5C271.172 42.5 270.5 43.1716 270.5 44C270.5 44.8284 271.172 45.5 272 45.5V42.5ZM346.061 45.0607C346.646 44.4749 346.646 43.5251 346.061 42.9393L336.515 33.3934C335.929 32.8076 334.979 32.8076 334.393 33.3934C333.808 33.9792 333.808 34.9289 334.393 35.5147L342.879 44L334.393 52.4853C333.808 53.0711 333.808 54.0208 334.393 54.6066C334.979 55.1924 335.929 55.1924 336.515 54.6066L346.061 45.0607ZM272 45.5H345V42.5H272V45.5Z" fill="#0A3871"/>
</svg>
