<svg width="381" height="211" viewBox="0 0 381 211" fill="none" xmlns="http://www.w3.org/2000/svg">
<path d="M86.256 157V140.2H93.6C95.424 140.2 97.024 140.552 98.4 141.256C99.776 141.96 100.848 142.936 101.616 144.184C102.384 145.432 102.768 146.904 102.768 148.6C102.768 150.28 102.384 151.752 101.616 153.016C100.848 154.264 99.776 155.24 98.4 155.944C97.024 156.648 95.424 157 93.6 157H86.256ZM89.376 154.36H93.456C94.72 154.36 95.808 154.12 96.72 153.64C97.648 153.16 98.36 152.488 98.856 151.624C99.368 150.76 99.624 149.752 99.624 148.6C99.624 147.432 99.368 146.424 98.856 145.576C98.36 144.712 97.648 144.04 96.72 143.56C95.808 143.08 94.72 142.84 93.456 142.84H89.376V154.36ZM111.82 157.168C110.396 157.168 109.148 156.888 108.076 156.328C107.02 155.752 106.196 154.968 105.604 153.976C105.028 152.984 104.74 151.856 104.74 150.592C104.74 149.312 105.02 148.184 105.58 147.208C106.156 146.216 106.94 145.44 107.932 144.88C108.94 144.32 110.084 144.04 111.364 144.04C112.612 144.04 113.724 144.312 114.7 144.856C115.676 145.4 116.444 146.168 117.004 147.16C117.564 148.152 117.844 149.32 117.844 150.664C117.844 150.792 117.836 150.936 117.82 151.096C117.82 151.256 117.812 151.408 117.796 151.552H107.116V149.56H116.212L115.036 150.184C115.052 149.448 114.9 148.8 114.58 148.24C114.26 147.68 113.82 147.24 113.26 146.92C112.716 146.6 112.084 146.44 111.364 146.44C110.628 146.44 109.98 146.6 109.42 146.92C108.876 147.24 108.444 147.688 108.124 148.264C107.82 148.824 107.668 149.488 107.668 150.256V150.736C107.668 151.504 107.844 152.184 108.196 152.776C108.548 153.368 109.044 153.824 109.684 154.144C110.324 154.464 111.06 154.624 111.892 154.624C112.612 154.624 113.26 154.512 113.836 154.288C114.412 154.064 114.924 153.712 115.372 153.232L116.98 155.08C116.404 155.752 115.676 156.272 114.796 156.64C113.932 156.992 112.94 157.168 111.82 157.168ZM124.686 157.168C123.614 157.168 122.582 157.032 121.59 156.76C120.614 156.472 119.838 156.128 119.262 155.728L120.414 153.448C120.99 153.816 121.678 154.12 122.478 154.36C123.278 154.6 124.078 154.72 124.878 154.72C125.822 154.72 126.502 154.592 126.918 154.336C127.35 154.08 127.566 153.736 127.566 153.304C127.566 152.952 127.422 152.688 127.134 152.512C126.846 152.32 126.47 152.176 126.006 152.08C125.542 151.984 125.022 151.896 124.446 151.816C123.886 151.736 123.318 151.632 122.742 151.504C122.182 151.36 121.67 151.16 121.206 150.904C120.742 150.632 120.366 150.272 120.078 149.824C119.79 149.376 119.646 148.784 119.646 148.048C119.646 147.232 119.878 146.528 120.342 145.936C120.806 145.328 121.454 144.864 122.286 144.544C123.134 144.208 124.134 144.04 125.286 144.04C126.15 144.04 127.022 144.136 127.902 144.328C128.782 144.52 129.51 144.792 130.086 145.144L128.934 147.424C128.326 147.056 127.71 146.808 127.086 146.68C126.478 146.536 125.87 146.464 125.262 146.464C124.35 146.464 123.67 146.6 123.222 146.872C122.79 147.144 122.574 147.488 122.574 147.904C122.574 148.288 122.718 148.576 123.006 148.768C123.294 148.96 123.67 149.112 124.134 149.224C124.598 149.336 125.11 149.432 125.67 149.512C126.246 149.576 126.814 149.68 127.374 149.824C127.934 149.968 128.446 150.168 128.91 150.424C129.39 150.664 129.774 151.008 130.062 151.456C130.35 151.904 130.494 152.488 130.494 153.208C130.494 154.008 130.254 154.704 129.774 155.296C129.31 155.888 128.646 156.352 127.782 156.688C126.918 157.008 125.886 157.168 124.686 157.168ZM139.101 157.168C137.677 157.168 136.429 156.888 135.357 156.328C134.301 155.752 133.477 154.968 132.885 153.976C132.309 152.984 132.021 151.856 132.021 150.592C132.021 149.312 132.301 148.184 132.861 147.208C133.437 146.216 134.221 145.44 135.213 144.88C136.221 144.32 137.365 144.04 138.645 144.04C139.893 144.04 141.005 144.312 141.981 144.856C142.957 145.4 143.725 146.168 144.285 147.16C144.845 148.152 145.125 149.32 145.125 150.664C145.125 150.792 145.117 150.936 145.101 151.096C145.101 151.256 145.093 151.408 145.077 151.552H134.397V149.56H143.493L142.317 150.184C142.333 149.448 142.181 148.8 141.861 148.24C141.541 147.68 141.101 147.24 140.541 146.92C139.997 146.6 139.365 146.44 138.645 146.44C137.909 146.44 137.261 146.6 136.701 146.92C136.157 147.24 135.725 147.688 135.405 148.264C135.101 148.824 134.949 149.488 134.949 150.256V150.736C134.949 151.504 135.125 152.184 135.477 152.776C135.829 153.368 136.325 153.824 136.965 154.144C137.605 154.464 138.341 154.624 139.173 154.624C139.893 154.624 140.541 154.512 141.117 154.288C141.693 154.064 142.205 153.712 142.653 153.232L144.261 155.08C143.685 155.752 142.957 156.272 142.077 156.64C141.213 156.992 140.221 157.168 139.101 157.168ZM155.279 144.04C156.303 144.04 157.215 144.24 158.015 144.64C158.831 145.04 159.471 145.656 159.935 146.488C160.399 147.304 160.631 148.36 160.631 149.656V157H157.631V150.04C157.631 148.904 157.359 148.056 156.815 147.496C156.287 146.936 155.543 146.656 154.583 146.656C153.879 146.656 153.255 146.8 152.711 147.088C152.167 147.376 151.743 147.808 151.439 148.384C151.151 148.944 151.007 149.656 151.007 150.52V157H148.007V144.184H150.863V147.64L150.359 146.584C150.807 145.768 151.455 145.144 152.303 144.712C153.167 144.264 154.159 144.04 155.279 144.04ZM170.34 157.168C168.996 157.168 167.796 156.888 166.74 156.328C165.7 155.752 164.884 154.968 164.292 153.976C163.7 152.984 163.404 151.856 163.404 150.592C163.404 149.312 163.7 148.184 164.292 147.208C164.884 146.216 165.7 145.44 166.74 144.88C167.796 144.32 168.996 144.04 170.34 144.04C171.588 144.04 172.684 144.296 173.628 144.808C174.588 145.304 175.316 146.04 175.812 147.016L173.508 148.36C173.124 147.752 172.652 147.304 172.092 147.016C171.548 146.728 170.956 146.584 170.316 146.584C169.58 146.584 168.916 146.744 168.324 147.064C167.732 147.384 167.268 147.848 166.932 148.456C166.596 149.048 166.428 149.76 166.428 150.592C166.428 151.424 166.596 152.144 166.932 152.752C167.268 153.344 167.732 153.8 168.324 154.12C168.916 154.44 169.58 154.6 170.316 154.6C170.956 154.6 171.548 154.456 172.092 154.168C172.652 153.88 173.124 153.432 173.508 152.824L175.812 154.168C175.316 155.128 174.588 155.872 173.628 156.4C172.684 156.912 171.588 157.168 170.34 157.168ZM178.406 157V144.184H181.262V147.712L180.926 146.68C181.31 145.816 181.91 145.16 182.726 144.712C183.558 144.264 184.59 144.04 185.822 144.04V146.896C185.694 146.864 185.574 146.848 185.462 146.848C185.35 146.832 185.238 146.824 185.126 146.824C183.99 146.824 183.086 147.16 182.414 147.832C181.742 148.488 181.406 149.472 181.406 150.784V157H178.406ZM188.366 157V144.184H191.366V157H188.366ZM189.878 142.072C189.318 142.072 188.854 141.896 188.486 141.544C188.134 141.192 187.958 140.768 187.958 140.272C187.958 139.76 188.134 139.336 188.486 139C188.854 138.648 189.318 138.472 189.878 138.472C190.438 138.472 190.894 138.64 191.246 138.976C191.614 139.296 191.798 139.704 191.798 140.2C191.798 140.728 191.622 141.176 191.27 141.544C190.918 141.896 190.454 142.072 189.878 142.072ZM202.408 157.168C201.368 157.168 200.416 156.928 199.552 156.448C198.704 155.968 198.024 155.248 197.512 154.288C197.016 153.312 196.768 152.08 196.768 150.592C196.768 149.088 197.008 147.856 197.488 146.896C197.984 145.936 198.656 145.224 199.504 144.76C200.352 144.28 201.32 144.04 202.408 144.04C203.672 144.04 204.784 144.312 205.744 144.856C206.72 145.4 207.488 146.16 208.048 147.136C208.624 148.112 208.912 149.264 208.912 150.592C208.912 151.92 208.624 153.08 208.048 154.072C207.488 155.048 206.72 155.808 205.744 156.352C204.784 156.896 203.672 157.168 202.408 157.168ZM195.304 161.656V144.184H198.16V147.208L198.064 150.616L198.304 154.024V161.656H195.304ZM202.072 154.6C202.792 154.6 203.432 154.44 203.992 154.12C204.568 153.8 205.024 153.336 205.36 152.728C205.696 152.12 205.864 151.408 205.864 150.592C205.864 149.76 205.696 149.048 205.36 148.456C205.024 147.848 204.568 147.384 203.992 147.064C203.432 146.744 202.792 146.584 202.072 146.584C201.352 146.584 200.704 146.744 200.128 147.064C199.552 147.384 199.096 147.848 198.76 148.456C198.424 149.048 198.256 149.76 198.256 150.592C198.256 151.408 198.424 152.12 198.76 152.728C199.096 153.336 199.552 153.8 200.128 154.12C200.704 154.44 201.352 154.6 202.072 154.6ZM216.581 157.168C215.173 157.168 214.085 156.808 213.317 156.088C212.549 155.352 212.165 154.272 212.165 152.848V141.352H215.165V152.776C215.165 153.384 215.317 153.856 215.621 154.192C215.941 154.528 216.381 154.696 216.941 154.696C217.613 154.696 218.173 154.52 218.621 154.168L219.461 156.304C219.109 156.592 218.677 156.808 218.165 156.952C217.653 157.096 217.125 157.168 216.581 157.168ZM210.053 146.68V144.28H218.597V146.68H210.053ZM229.825 157V154.408L229.657 153.856V149.32C229.657 148.44 229.393 147.76 228.865 147.28C228.337 146.784 227.537 146.536 226.465 146.536C225.745 146.536 225.033 146.648 224.329 146.872C223.641 147.096 223.057 147.408 222.577 147.808L221.401 145.624C222.089 145.096 222.905 144.704 223.849 144.448C224.809 144.176 225.801 144.04 226.825 144.04C228.681 144.04 230.113 144.488 231.121 145.384C232.145 146.264 232.657 147.632 232.657 149.488V157H229.825ZM225.793 157.168C224.833 157.168 223.993 157.008 223.273 156.688C222.553 156.352 221.993 155.896 221.593 155.32C221.209 154.728 221.017 154.064 221.017 153.328C221.017 152.608 221.185 151.96 221.521 151.384C221.873 150.808 222.441 150.352 223.225 150.016C224.009 149.68 225.049 149.512 226.345 149.512H230.065V151.504H226.561C225.537 151.504 224.849 151.672 224.497 152.008C224.145 152.328 223.969 152.728 223.969 153.208C223.969 153.752 224.185 154.184 224.617 154.504C225.049 154.824 225.649 154.984 226.417 154.984C227.153 154.984 227.809 154.816 228.385 154.48C228.977 154.144 229.401 153.648 229.657 152.992L230.161 154.792C229.873 155.544 229.353 156.128 228.601 156.544C227.865 156.96 226.929 157.168 225.793 157.168ZM246.836 157V142.84H241.268V140.2H255.524V142.84H249.956V157H246.836ZM262.697 157.168C261.609 157.168 260.649 156.968 259.817 156.568C258.985 156.152 258.337 155.528 257.873 154.696C257.409 153.848 257.177 152.784 257.177 151.504V144.184H260.177V151.096C260.177 152.248 260.433 153.112 260.945 153.688C261.473 154.248 262.217 154.528 263.177 154.528C263.881 154.528 264.489 154.384 265.001 154.096C265.529 153.808 265.937 153.376 266.225 152.8C266.529 152.224 266.681 151.512 266.681 150.664V144.184H269.681V157H266.825V153.544L267.329 154.6C266.897 155.432 266.265 156.072 265.433 156.52C264.601 156.952 263.689 157.168 262.697 157.168ZM280.529 157V140.2H283.097L290.441 152.464H289.097L296.321 140.2H298.889L298.913 157H295.961L295.937 144.832H296.561L290.417 155.08H289.025L282.785 144.832H283.505V157H280.529ZM309.187 157.168C307.763 157.168 306.515 156.888 305.443 156.328C304.387 155.752 303.563 154.968 302.971 153.976C302.395 152.984 302.107 151.856 302.107 150.592C302.107 149.312 302.387 148.184 302.947 147.208C303.523 146.216 304.307 145.44 305.299 144.88C306.307 144.32 307.451 144.04 308.731 144.04C309.979 144.04 311.091 144.312 312.067 144.856C313.043 145.4 313.811 146.168 314.371 147.16C314.931 148.152 315.211 149.32 315.211 150.664C315.211 150.792 315.203 150.936 315.187 151.096C315.187 151.256 315.179 151.408 315.163 151.552H304.483V149.56H313.579L312.403 150.184C312.419 149.448 312.267 148.8 311.947 148.24C311.627 147.68 311.187 147.24 310.627 146.92C310.083 146.6 309.451 146.44 308.731 146.44C307.995 146.44 307.347 146.6 306.787 146.92C306.243 147.24 305.811 147.688 305.491 148.264C305.187 148.824 305.035 149.488 305.035 150.256V150.736C305.035 151.504 305.211 152.184 305.563 152.776C305.915 153.368 306.411 153.824 307.051 154.144C307.691 154.464 308.427 154.624 309.259 154.624C309.979 154.624 310.627 154.512 311.203 154.288C311.779 154.064 312.291 153.712 312.739 153.232L314.347 155.08C313.771 155.752 313.043 156.272 312.163 156.64C311.299 156.992 310.307 157.168 309.187 157.168ZM325.365 144.04C326.389 144.04 327.301 144.24 328.101 144.64C328.917 145.04 329.557 145.656 330.021 146.488C330.485 147.304 330.717 148.36 330.717 149.656V157H327.717V150.04C327.717 148.904 327.445 148.056 326.901 147.496C326.373 146.936 325.629 146.656 324.669 146.656C323.965 146.656 323.341 146.8 322.797 147.088C322.253 147.376 321.829 147.808 321.525 148.384C321.237 148.944 321.093 149.656 321.093 150.52V157H318.093V144.184H320.949V147.64L320.445 146.584C320.893 145.768 321.541 145.144 322.389 144.712C323.253 144.264 324.245 144.04 325.365 144.04ZM338.483 157.168C337.411 157.168 336.379 157.032 335.387 156.76C334.411 156.472 333.635 156.128 333.059 155.728L334.211 153.448C334.787 153.816 335.475 154.12 336.275 154.36C337.075 154.6 337.875 154.72 338.675 154.72C339.619 154.72 340.299 154.592 340.715 154.336C341.147 154.08 341.363 153.736 341.363 153.304C341.363 152.952 341.219 152.688 340.931 152.512C340.643 152.32 340.267 152.176 339.803 152.08C339.339 151.984 338.819 151.896 338.243 151.816C337.683 151.736 337.115 151.632 336.539 151.504C335.979 151.36 335.467 151.16 335.003 150.904C334.539 150.632 334.163 150.272 333.875 149.824C333.587 149.376 333.443 148.784 333.443 148.048C333.443 147.232 333.675 146.528 334.139 145.936C334.603 145.328 335.251 144.864 336.083 144.544C336.931 144.208 337.931 144.04 339.083 144.04C339.947 144.04 340.819 144.136 341.699 144.328C342.579 144.52 343.307 144.792 343.883 145.144L342.731 147.424C342.123 147.056 341.507 146.808 340.883 146.68C340.275 146.536 339.667 146.464 339.059 146.464C338.147 146.464 337.467 146.6 337.019 146.872C336.587 147.144 336.371 147.488 336.371 147.904C336.371 148.288 336.515 148.576 336.803 148.768C337.091 148.96 337.467 149.112 337.931 149.224C338.395 149.336 338.907 149.432 339.467 149.512C340.043 149.576 340.611 149.68 341.171 149.824C341.731 149.968 342.243 150.168 342.707 150.424C343.187 150.664 343.571 151.008 343.859 151.456C344.147 151.904 344.291 152.488 344.291 153.208C344.291 154.008 344.051 154.704 343.571 155.296C343.107 155.888 342.443 156.352 341.579 156.688C340.715 157.008 339.683 157.168 338.483 157.168ZM354.77 157V154.408L354.602 153.856V149.32C354.602 148.44 354.338 147.76 353.81 147.28C353.282 146.784 352.482 146.536 351.41 146.536C350.69 146.536 349.978 146.648 349.274 146.872C348.586 147.096 348.002 147.408 347.522 147.808L346.346 145.624C347.034 145.096 347.85 144.704 348.794 144.448C349.754 144.176 350.746 144.04 351.77 144.04C353.626 144.04 355.058 144.488 356.066 145.384C357.09 146.264 357.602 147.632 357.602 149.488V157H354.77ZM350.738 157.168C349.778 157.168 348.938 157.008 348.218 156.688C347.498 156.352 346.938 155.896 346.538 155.32C346.154 154.728 345.962 154.064 345.962 153.328C345.962 152.608 346.13 151.96 346.466 151.384C346.818 150.808 347.386 150.352 348.17 150.016C348.954 149.68 349.994 149.512 351.29 149.512H355.01V151.504H351.506C350.482 151.504 349.794 151.672 349.442 152.008C349.09 152.328 348.914 152.728 348.914 153.208C348.914 153.752 349.13 154.184 349.562 154.504C349.994 154.824 350.594 154.984 351.362 154.984C352.098 154.984 352.754 154.816 353.33 154.48C353.922 154.144 354.346 153.648 354.602 152.992L355.106 154.792C354.818 155.544 354.298 156.128 353.546 156.544C352.81 156.96 351.874 157.168 350.738 157.168ZM360.132 161.824C359.572 161.824 359.044 161.76 358.548 161.632C358.036 161.52 357.604 161.336 357.252 161.08L358.116 158.848C358.58 159.184 359.164 159.352 359.868 159.352C360.412 159.352 360.836 159.176 361.14 158.824C361.444 158.488 361.596 157.984 361.596 157.312V144.184H364.596V157.24C364.596 158.648 364.204 159.76 363.42 160.576C362.652 161.408 361.556 161.824 360.132 161.824ZM363.084 142.072C362.524 142.072 362.06 141.896 361.692 141.544C361.34 141.192 361.164 140.768 361.164 140.272C361.164 139.76 361.34 139.336 361.692 139C362.06 138.648 362.524 138.472 363.084 138.472C363.644 138.472 364.1 138.64 364.452 138.976C364.82 139.296 365.004 139.704 365.004 140.2C365.004 140.728 364.828 141.176 364.476 141.544C364.124 141.896 363.66 142.072 363.084 142.072ZM374.555 157.168C373.131 157.168 371.883 156.888 370.811 156.328C369.755 155.752 368.931 154.968 368.339 153.976C367.763 152.984 367.475 151.856 367.475 150.592C367.475 149.312 367.755 148.184 368.315 147.208C368.891 146.216 369.675 145.44 370.667 144.88C371.675 144.32 372.819 144.04 374.099 144.04C375.347 144.04 376.459 144.312 377.435 144.856C378.411 145.4 379.179 146.168 379.739 147.16C380.299 148.152 380.579 149.32 380.579 150.664C380.579 150.792 380.571 150.936 380.555 151.096C380.555 151.256 380.547 151.408 380.531 151.552H369.851V149.56H378.947L377.771 150.184C377.787 149.448 377.635 148.8 377.315 148.24C376.995 147.68 376.555 147.24 375.995 146.92C375.451 146.6 374.819 146.44 374.099 146.44C373.363 146.44 372.715 146.6 372.155 146.92C371.611 147.24 371.179 147.688 370.859 148.264C370.555 148.824 370.403 149.488 370.403 150.256V150.736C370.403 151.504 370.579 152.184 370.931 152.776C371.283 153.368 371.779 153.824 372.419 154.144C373.059 154.464 373.795 154.624 374.627 154.624C375.347 154.624 375.995 154.512 376.571 154.288C377.147 154.064 377.659 153.712 378.107 153.232L379.715 155.08C379.139 155.752 378.411 156.272 377.531 156.64C376.667 156.992 375.675 157.168 374.555 157.168Z" fill="#727272"/>
<rect width="18" height="211" fill="#F3F5FC"/>
<path d="M106.224 64.776C108.56 65.064 110.288 65.816 111.408 67.032C112.56 68.216 113.136 69.688 113.136 71.448C113.136 73.208 112.48 74.872 111.168 76.44C109.888 78.008 108.24 79.224 106.224 80.088C105.328 80.44 104.144 80.696 102.672 80.856C101.232 81.016 99.744 81.096 98.208 81.096C95.648 81.096 93.024 80.856 90.336 80.376C89.856 80.28 89.344 80.04 88.8 79.656C88.288 79.272 88.032 78.712 88.032 77.976C88 75.032 87.888 70.936 87.696 65.688L87.648 63.048C87.52 58.952 87.456 55.736 87.456 53.4C87.456 52.984 87.696 52.504 88.176 51.96C88.688 51.384 89.296 51.064 90 51C90.416 51 90.816 50.984 91.2 50.952C94.816 50.6 97.232 50.424 98.448 50.424C100.848 50.424 102.96 50.664 104.784 51.144C106.64 51.592 108.176 52.424 109.392 53.64C109.84 54.152 110.208 54.808 110.496 55.608C110.784 56.376 110.928 57.128 110.928 57.864C110.96 59.432 110.544 60.872 109.68 62.184C108.848 63.496 107.696 64.36 106.224 64.776ZM98.736 54.504C97.648 54.504 96.512 54.568 95.328 54.696C94.176 54.824 93.2 54.984 92.4 55.176L92.688 64.248L94.416 64.2C97.2 63.912 99.248 63.672 100.56 63.48C101.392 63.288 102.208 62.92 103.008 62.376C103.808 61.8 104.464 61.208 104.976 60.6C105.52 59.96 105.792 59.48 105.792 59.16C105.792 58.68 105.696 58.2 105.504 57.72C105.312 57.208 105.104 56.84 104.88 56.616C104.016 55.784 103.136 55.224 102.24 54.936C101.344 54.648 100.176 54.504 98.736 54.504ZM92.832 76.872C94.464 77.096 96.016 77.208 97.488 77.208C100.72 77.208 103.264 76.792 105.12 75.96C107.008 75.096 107.952 73.464 107.952 71.064C107.952 70.104 107.232 69.304 105.792 68.664C104.352 68.024 102.8 67.704 101.136 67.704C100.016 67.704 98.592 67.832 96.864 68.088C95.488 68.28 94.144 68.408 92.832 68.472C92.896 70.392 92.928 71.608 92.928 72.12C92.928 73.112 92.912 73.864 92.88 74.376L92.832 76.872ZM120.023 50.184C121.143 50.28 122.119 50.584 122.951 51.096C123.783 51.576 124.199 52.312 124.199 53.304C124.199 54.04 123.847 54.632 123.143 55.08C122.471 55.496 121.655 55.704 120.695 55.704C119.767 55.704 119.127 55.464 118.775 54.984C118.423 54.504 118.247 54.008 118.247 53.496C118.247 52.536 118.343 51.736 118.535 51.096C118.759 50.456 119.255 50.152 120.023 50.184ZM123.863 71.448V72.84C123.863 74.088 123.895 75.272 123.959 76.392C124.055 77.48 124.167 78.584 124.295 79.704C124.263 80.024 124.023 80.36 123.575 80.712C123.127 81.032 122.727 81.192 122.375 81.192C121.767 81.192 121.143 81.08 120.503 80.856C119.895 80.6 119.527 80.296 119.399 79.944C119.207 78.92 119.111 78.008 119.111 77.208C119.111 74.584 119.031 71.64 118.871 68.376C118.743 65.496 118.679 63.48 118.679 62.328C118.679 61.752 118.967 61.256 119.543 60.84C120.119 60.424 120.727 60.216 121.367 60.216C122.295 60.216 122.935 60.424 123.287 60.84C123.671 61.256 123.863 61.912 123.863 62.808V71.448ZM129.377 70.008C129.377 68.056 129.809 66.44 130.673 65.16C131.537 63.848 132.737 62.616 134.273 61.464C134.721 61.144 135.473 60.872 136.529 60.648C137.585 60.392 138.513 60.264 139.312 60.264C140.273 60.264 141.281 60.472 142.337 60.888C143.425 61.272 144.305 61.72 144.977 62.232C146.161 63.096 146.977 64.104 147.425 65.256C147.873 66.376 148.097 67.72 148.097 69.288C148.097 69.96 147.713 70.616 146.945 71.256C146.209 71.864 145.409 72.168 144.545 72.168L142.721 72.12C141.793 72.12 140.465 72.152 138.737 72.216L137.729 72.264C137.025 72.328 136.497 72.36 136.145 72.36C135.633 72.36 134.929 72.296 134.033 72.168C134.161 73.672 134.721 74.856 135.713 75.72C136.705 76.552 137.777 76.968 138.929 76.968C140.945 76.968 142.353 76.568 143.153 75.768C143.825 75.288 144.273 74.984 144.497 74.856C144.721 74.728 145.073 74.664 145.553 74.664C146.065 74.664 146.513 74.904 146.897 75.384C147.281 75.864 147.473 76.344 147.473 76.824C147.473 77.368 147.137 77.928 146.465 78.504C145.825 79.048 144.945 79.624 143.825 80.232C143.217 80.488 142.385 80.712 141.329 80.904C140.273 81.096 139.393 81.192 138.689 81.192C137.569 81.192 136.321 80.872 134.945 80.232C133.569 79.56 132.545 78.824 131.873 78.024C131.201 77.224 130.609 76.088 130.097 74.616C129.617 73.144 129.377 71.608 129.377 70.008ZM138.929 68.712C141.201 68.712 142.865 68.632 143.921 68.472C143.857 67.544 143.569 66.792 143.057 66.216C142.545 65.608 141.841 65.096 140.945 64.68C140.657 64.552 140.401 64.456 140.177 64.392C139.953 64.328 139.697 64.296 139.409 64.296C137.937 64.296 136.689 64.696 135.665 65.496C134.673 66.296 134.081 67.32 133.889 68.568C135.489 68.664 137.169 68.712 138.929 68.712ZM174.526 77.304C174.686 77.368 174.942 77.448 175.294 77.544C175.646 77.64 175.902 77.736 176.062 77.832C176.222 77.928 176.302 78.072 176.302 78.264C176.334 79.032 176.046 79.672 175.438 80.184C174.862 80.664 174.174 80.904 173.374 80.904C172.126 80.904 171.15 80.568 170.446 79.896C169.742 79.224 169.23 78.2 168.91 76.824C168.782 76.28 168.718 75.528 168.718 74.568C168.718 74.024 168.75 73.144 168.814 71.928C168.878 70.648 168.91 69.624 168.91 68.856C168.91 67.736 168.59 66.76 167.95 65.928C167.342 65.064 166.478 64.632 165.358 64.632C164.686 64.632 163.982 64.84 163.246 65.256C162.51 65.64 161.998 66.12 161.71 66.696C161.23 67.624 160.894 68.632 160.702 69.72C160.35 71.64 160.174 73.64 160.174 75.72C160.174 76.712 160.19 77.48 160.222 78.024C160.222 78.152 160.222 78.408 160.222 78.792C160.254 79.144 160.222 79.48 160.126 79.8C160.062 80.088 159.934 80.36 159.742 80.616C159.582 80.776 159.326 80.904 158.974 81C158.654 81.128 158.35 81.192 158.062 81.192C157.614 81.192 157.054 81 156.382 80.616C155.71 80.232 155.326 79.8 155.23 79.32L155.182 78.504C155.182 78.216 155.214 77.88 155.278 77.496C155.662 75.256 155.854 73.304 155.854 71.64C155.854 70.904 155.838 70.328 155.806 69.912L155.758 67.656C155.758 66.888 155.566 66.152 155.182 65.448C154.798 64.712 154.35 64.344 153.838 64.344C153.678 64.344 153.454 64.408 153.166 64.536C152.878 64.632 152.638 64.68 152.446 64.68C152.126 64.68 151.774 64.52 151.39 64.2C151.038 63.88 150.862 63.544 150.862 63.192C150.862 62.52 151.086 61.976 151.534 61.56C152.014 61.176 152.478 60.872 152.926 60.648C153.406 60.424 153.95 60.312 154.558 60.312C155.07 60.312 155.486 60.36 155.806 60.456C156.126 60.552 156.558 60.76 157.102 61.08C157.39 61.24 157.726 61.592 158.11 62.136C158.494 62.68 158.814 63.448 159.07 64.44C159.902 62.904 160.926 61.832 162.142 61.224C163.39 60.584 164.974 60.264 166.894 60.264C167.63 60.264 168.414 60.504 169.246 60.984C170.11 61.464 170.846 62.024 171.454 62.664C172.03 63.368 172.51 64.248 172.894 65.304C173.278 66.328 173.47 67.256 173.47 68.088C173.47 68.568 173.438 69.352 173.374 70.44C173.278 71.304 173.23 72.216 173.23 73.176C173.23 75.416 173.662 76.792 174.526 77.304ZM190.914 68.664C191.01 68.408 191.346 67.48 191.922 65.88C192.53 64.28 193.09 63.064 193.602 62.232C194.434 60.92 195.17 60.264 195.81 60.264C196.706 60.264 197.394 60.44 197.874 60.792C198.354 61.112 198.594 61.576 198.594 62.184C198.594 62.472 198.466 62.872 198.21 63.384C197.986 63.896 197.858 64.2 197.826 64.296C196.546 67.112 195.394 70.136 194.37 73.368L193.362 77.112C192.978 78.328 192.322 79.32 191.394 80.088C190.466 80.824 189.378 81.192 188.13 81.192C187.01 81.192 185.97 80.68 185.01 79.656C184.434 78.76 183.826 77.624 183.186 76.248C182.578 74.872 182.05 73.528 181.602 72.216L179.922 67.176C179.57 66.184 179.282 65.336 179.058 64.632C178.866 63.928 178.77 63.288 178.77 62.712C178.738 62.04 178.93 61.496 179.346 61.08C179.762 60.664 180.338 60.456 181.074 60.456C181.906 60.456 182.498 60.632 182.85 60.984C183.202 61.304 183.522 61.816 183.81 62.52C183.938 63.256 184.29 64.76 184.866 67.032L185.202 68.376C185.49 69.464 185.858 70.568 186.306 71.688C186.754 72.808 187.202 73.88 187.65 74.904C187.586 74.744 187.81 75.272 188.322 76.488C188.642 75.56 189.01 74.424 189.426 73.08L190.914 68.664ZM201.613 70.152C201.613 69 201.821 67.928 202.237 66.936C202.653 65.912 203.261 64.856 204.061 63.768C204.861 62.68 205.965 61.832 207.373 61.224C208.781 60.584 210.317 60.264 211.981 60.264C213.261 60.264 214.493 60.536 215.677 61.08C216.893 61.592 217.981 62.232 218.941 63C219.069 63.224 219.293 63.64 219.613 64.248C219.933 64.824 220.157 65.352 220.285 65.832C220.445 66.312 220.525 66.808 220.525 67.32C220.525 69.464 219.741 70.904 218.173 71.64C216.605 72.344 214.621 72.696 212.221 72.696C209.821 72.696 207.869 72.536 206.365 72.216C206.429 72.824 206.589 73.432 206.845 74.04C207.101 74.648 207.405 75.112 207.757 75.432C208.397 76.04 209.021 76.44 209.629 76.632C210.269 76.792 211.117 76.872 212.173 76.872C213.773 76.872 215.021 76.568 215.917 75.96C216.749 75.416 217.389 75.144 217.837 75.144C218.445 75.144 218.909 75.336 219.229 75.72C219.549 76.072 219.709 76.536 219.709 77.112C219.709 78.328 218.925 79.32 217.357 80.088C215.821 80.856 214.077 81.24 212.125 81.24C210.589 81.24 209.069 80.968 207.565 80.424C206.061 79.88 204.861 79.112 203.965 78.12C203.357 77.096 202.813 75.848 202.333 74.376C201.853 72.904 201.613 71.496 201.613 70.152ZM212.173 64.2C211.469 64.2 210.733 64.328 209.965 64.584C209.229 64.808 208.653 65.16 208.237 65.64C207.725 66.184 207.341 66.68 207.085 67.128C206.861 67.576 206.717 68.136 206.653 68.808C207.005 68.808 207.341 68.824 207.661 68.856C207.981 68.888 208.285 68.92 208.573 68.952C209.981 69.08 211.037 69.144 211.741 69.144C213.149 69.144 214.221 68.936 214.957 68.52C215.725 68.104 216.109 67.544 216.109 66.84C216.109 66.168 215.677 65.56 214.813 65.016C213.981 64.472 213.101 64.2 212.173 64.2ZM247.041 77.304C247.201 77.368 247.457 77.448 247.809 77.544C248.161 77.64 248.417 77.736 248.577 77.832C248.737 77.928 248.817 78.072 248.817 78.264C248.849 79.032 248.561 79.672 247.953 80.184C247.377 80.664 246.689 80.904 245.889 80.904C244.641 80.904 243.665 80.568 242.961 79.896C242.257 79.224 241.745 78.2 241.425 76.824C241.297 76.28 241.233 75.528 241.233 74.568C241.233 74.024 241.265 73.144 241.329 71.928C241.393 70.648 241.425 69.624 241.425 68.856C241.425 67.48 241.281 66.44 240.993 65.736C240.705 65 240.017 64.632 238.929 64.632C237.809 64.632 236.801 65.08 235.905 65.976C235.041 66.872 234.305 68.216 233.697 70.008C232.865 72.504 232.401 75.816 232.305 79.944C232.305 80.168 232.065 80.44 231.585 80.76C231.137 81.048 230.593 81.192 229.953 81.192C228.769 81.192 228.033 80.568 227.745 79.32L227.697 78.504C227.697 78.216 227.729 77.88 227.793 77.496C228.177 75.256 228.369 73.304 228.369 71.64C228.369 70.904 228.353 70.328 228.321 69.912L228.273 67.656C228.273 66.888 228.081 66.152 227.697 65.448C227.313 64.712 226.865 64.344 226.353 64.344C226.193 64.344 225.969 64.408 225.681 64.536C225.393 64.632 225.153 64.68 224.961 64.68C224.641 64.68 224.289 64.52 223.905 64.2C223.553 63.88 223.377 63.544 223.377 63.192C223.377 62.52 223.601 61.976 224.049 61.56C224.529 61.176 224.993 60.872 225.441 60.648C225.921 60.424 226.465 60.312 227.073 60.312C227.585 60.312 228.001 60.36 228.321 60.456C228.641 60.552 229.073 60.76 229.617 61.08C229.937 61.24 230.305 61.688 230.721 62.424C231.137 63.16 231.457 64.2 231.681 65.544C232.321 64.36 233.393 63.112 234.897 61.8C236.017 60.776 237.633 60.264 239.745 60.264C241.665 60.264 243.185 60.968 244.305 62.376C245.425 63.752 245.985 65.656 245.985 68.088C245.985 68.568 245.953 69.352 245.889 70.44C245.793 71.304 245.745 72.216 245.745 73.176C245.745 75.416 246.177 76.792 247.041 77.304ZM254.836 50.184C255.956 50.28 256.932 50.584 257.764 51.096C258.596 51.576 259.012 52.312 259.012 53.304C259.012 54.04 258.66 54.632 257.956 55.08C257.284 55.496 256.468 55.704 255.508 55.704C254.58 55.704 253.94 55.464 253.588 54.984C253.236 54.504 253.06 54.008 253.06 53.496C253.06 52.536 253.156 51.736 253.348 51.096C253.572 50.456 254.068 50.152 254.836 50.184ZM258.676 71.448V72.84C258.676 74.088 258.708 75.272 258.772 76.392C258.868 77.48 258.98 78.584 259.108 79.704C259.076 80.024 258.836 80.36 258.388 80.712C257.94 81.032 257.54 81.192 257.188 81.192C256.58 81.192 255.956 81.08 255.316 80.856C254.708 80.6 254.34 80.296 254.212 79.944C254.02 78.92 253.924 78.008 253.924 77.208C253.924 74.584 253.844 71.64 253.684 68.376C253.556 65.496 253.492 63.48 253.492 62.328C253.492 61.752 253.78 61.256 254.356 60.84C254.932 60.424 255.54 60.216 256.18 60.216C257.108 60.216 257.748 60.424 258.1 60.84C258.484 61.256 258.676 61.912 258.676 62.808V71.448ZM283.821 50.952C283.821 51.272 283.741 52.152 283.581 53.592C283.229 57.112 283.053 60.68 283.053 64.296C283.053 67.464 283.101 69.88 283.197 71.544C283.293 73.208 283.533 74.488 283.917 75.384C284.301 76.248 284.893 76.68 285.693 76.68C287.229 76.68 287.997 77.192 287.997 78.216C287.997 78.888 287.661 79.464 286.989 79.944C286.317 80.392 285.581 80.616 284.781 80.616C283.821 80.616 282.925 80.392 282.093 79.944C281.261 79.496 280.605 78.808 280.125 77.88C279.453 78.872 278.477 79.672 277.197 80.28C275.949 80.856 274.733 81.144 273.549 81.144C271.725 81.144 270.109 80.76 268.701 79.992C267.293 79.224 266.205 78.184 265.437 76.872C264.669 75.528 264.285 74.056 264.285 72.456C264.285 70.92 264.461 69.448 264.813 68.04C265.197 66.6 265.709 65.416 266.349 64.488C267.213 63.272 268.365 62.312 269.805 61.608C271.277 60.872 272.717 60.504 274.125 60.504C274.989 60.504 275.805 60.68 276.573 61.032C277.341 61.352 278.013 61.752 278.589 62.232C278.589 60.088 278.573 58.744 278.541 58.2V57.192C278.541 54.216 278.733 52.04 279.117 50.664C279.469 49.32 280.317 48.648 281.661 48.648C282.397 48.648 282.941 48.808 283.293 49.128C283.645 49.448 283.821 50.056 283.821 50.952ZM269.037 72.36C269.037 73.832 269.453 75.016 270.285 75.912C271.149 76.808 272.173 77.256 273.357 77.256C275.053 77.256 276.301 76.728 277.101 75.672C277.933 74.616 278.349 73.256 278.349 71.592L278.301 66.84C277.053 65.464 275.757 64.776 274.413 64.776C273.485 64.776 272.605 65.016 271.773 65.496C270.973 65.944 270.333 66.632 269.853 67.56C269.309 68.616 269.037 70.216 269.037 72.36ZM310.065 65.592C310.321 66.04 310.529 66.696 310.689 67.56C310.849 68.392 310.929 69.144 310.929 69.816C310.929 70.68 310.833 71.64 310.641 72.696C310.449 73.752 310.273 74.568 310.113 75.144C307.905 79.176 304.641 81.192 300.321 81.192C298.721 81.192 297.089 80.664 295.425 79.608C293.761 78.552 292.609 77.336 291.969 75.96C291.105 73.24 290.673 71.496 290.673 70.728C290.673 69.448 290.945 68.088 291.489 66.648C292.065 65.208 292.785 63.96 293.649 62.904C294.225 62.168 295.217 61.544 296.625 61.032C298.033 60.488 299.313 60.216 300.465 60.216C302.705 60.216 304.593 60.648 306.129 61.512C307.697 62.344 309.009 63.704 310.065 65.592ZM305.889 73.32C306.049 73 306.129 71.928 306.129 70.104C306.129 69.176 305.953 68.264 305.601 67.368C305.281 66.472 304.801 65.704 304.161 65.064C304.097 65 303.921 64.904 303.633 64.776C303.345 64.616 302.945 64.472 302.433 64.344C301.953 64.184 301.393 64.104 300.753 64.104C298.961 64.104 297.649 64.824 296.817 66.264C295.985 67.704 295.569 69.336 295.569 71.16C295.569 71.448 295.665 72.04 295.857 72.936C296.049 73.832 296.193 74.408 296.289 74.664C296.545 75.112 297.057 75.64 297.825 76.248C298.625 76.824 299.489 77.112 300.417 77.112C301.857 77.112 302.993 76.776 303.825 76.104C304.689 75.4 305.377 74.472 305.889 73.32ZM328.968 70.632C329.224 70.792 329.72 71.096 330.456 71.544C331.224 71.96 331.736 72.456 331.992 73.032C332.248 73.608 332.376 74.408 332.376 75.432C332.376 76.584 332.04 77.608 331.368 78.504C330.696 79.368 329.832 80.04 328.776 80.52C328.04 80.84 327.24 81.032 326.376 81.096C325.544 81.16 324.536 81.192 323.352 81.192C322.712 81.192 321.88 81.096 320.856 80.904C319.864 80.712 319.176 80.536 318.792 80.376C317.768 79.8 316.904 79.128 316.2 78.36C315.496 77.592 315.144 76.808 315.144 76.008C315.144 75.368 315.352 74.856 315.768 74.472C316.184 74.088 316.728 73.896 317.4 73.896C317.752 73.896 318.088 73.992 318.408 74.184C318.76 74.344 319 74.536 319.128 74.76C319.48 75.592 320.072 76.216 320.904 76.632C321.736 77.048 322.584 77.256 323.448 77.256C326.488 77.256 328.008 76.712 328.008 75.624C328.008 75.336 327.928 75.112 327.768 74.952C327.64 74.76 327.448 74.568 327.192 74.376C326.776 74.088 326.184 73.784 325.416 73.464C324.68 73.144 324.024 72.904 323.448 72.744C322.136 72.456 320.856 72.024 319.608 71.448C318.456 70.872 317.512 70.12 316.776 69.192C316.04 68.232 315.672 67.064 315.672 65.688C315.672 64.856 315.976 64.04 316.584 63.24C317.224 62.408 317.96 61.784 318.792 61.368C319.368 61.144 320.312 60.904 321.624 60.648C322.936 60.392 323.832 60.264 324.312 60.264C325.048 60.264 325.848 60.344 326.712 60.504C327.576 60.632 328.232 60.856 328.68 61.176C329.544 61.688 330.248 62.232 330.792 62.808C331.336 63.352 331.608 63.976 331.608 64.68C331.608 65.032 331.528 65.416 331.368 65.832C331.208 66.216 331.016 66.456 330.792 66.552C330.312 66.776 329.752 66.888 329.112 66.888C328.824 66.888 328.584 66.808 328.392 66.648C328.232 66.488 328.008 66.232 327.72 65.88C327.368 65.336 327.032 65.016 326.712 64.92C326.328 64.824 325.768 64.712 325.032 64.584C324.296 64.424 323.8 64.344 323.544 64.344C322.744 64.344 321.976 64.504 321.24 64.824C320.536 65.144 320.184 65.576 320.184 66.12C320.184 66.76 320.712 67.304 321.768 67.752C322.44 68.072 323.176 68.344 323.976 68.568C324.808 68.792 325.32 68.936 325.512 69C325.96 69.096 326.536 69.32 327.24 69.672C327.976 70.024 328.552 70.344 328.968 70.632Z" fill="white"/>
</svg>
