<svg width="535" height="529" viewBox="0 0 535 529" fill="none" xmlns="http://www.w3.org/2000/svg">
<path d="M405.203 156.085V111.387H401.157V54.1597C401.157 44.8087 397.443 35.8405 390.832 29.2272C384.221 22.6139 375.254 18.8971 365.903 18.894H176.455C171.823 18.8925 167.236 19.8036 162.956 21.5752C158.676 23.3468 154.787 25.9442 151.511 29.219C148.235 32.4939 145.637 36.3821 143.864 40.6615C142.091 44.9409 141.178 49.5276 141.178 54.1597V439.158C141.178 443.79 142.091 448.377 143.864 452.656C145.637 456.936 148.235 460.824 151.511 464.099C154.787 467.374 158.676 469.971 162.956 471.743C167.236 473.514 171.823 474.425 176.455 474.424H365.903C375.256 474.424 384.226 470.708 390.84 464.095C397.453 457.481 401.169 448.511 401.169 439.158V194.182H405.203V167.771H401.157V156.085H405.203Z" fill="#707070" stroke="#263238" stroke-linejoin="round"/>
<path d="M361.834 23.749H180.536C161.052 23.749 145.258 39.5432 145.258 59.0263V434.292C145.258 453.775 161.052 469.569 180.536 469.569H361.834C381.317 469.569 397.112 453.775 397.112 434.292V59.0263C397.112 39.5432 381.317 23.749 361.834 23.749Z" fill="#263238" stroke="#263238" stroke-linejoin="round"/>
<path d="M354.83 26.9507H284.888L284.818 27.205C282.749 34.6604 277.987 39.5035 272.705 39.5035H269.665C264.394 39.5035 259.62 34.6604 257.551 27.205L257.482 26.9507H187.54C182.907 26.9492 178.319 27.8606 174.038 29.6329C169.757 31.4052 165.868 34.0037 162.592 37.2798C159.316 40.5559 156.717 44.4454 154.945 48.7261C153.173 53.0068 152.261 57.5948 152.263 62.2279V413.96C152.263 418.592 153.175 423.179 154.948 427.458C156.721 431.738 159.32 435.626 162.596 438.901C165.872 442.176 169.761 444.773 174.041 446.545C178.321 448.316 182.908 449.227 187.54 449.226H354.83C359.462 449.227 364.049 448.316 368.329 446.545C372.609 444.773 376.498 442.176 379.774 438.901C383.05 435.626 385.648 431.738 387.421 427.458C389.194 423.179 390.107 418.592 390.107 413.96V62.2279C390.108 57.5948 389.197 53.0068 387.425 48.7261C385.652 44.4454 383.054 40.5559 379.778 37.2798C376.502 34.0037 372.612 31.4052 368.331 29.6329C364.051 27.8606 359.463 26.9492 354.83 26.9507Z" fill="white" stroke="#263238" stroke-linejoin="round"/>
<path d="M270.463 31.9441C272.289 31.9441 273.769 30.4641 273.769 28.6383C273.769 26.8126 272.289 25.3325 270.463 25.3325C268.637 25.3325 267.157 26.8126 267.157 28.6383C267.157 30.4641 268.637 31.9441 270.463 31.9441Z" fill="#707070"/>
<path d="M380.351 162.084H163.348V227.033H380.351V162.084Z" fill="#92E3A9"/>
<path opacity="0.5" d="M380.351 162.084H163.348V227.033H380.351V162.084Z" fill="white"/>
<path d="M359.072 201.152H378.699" stroke="#B2B2B2" stroke-miterlimit="10"/>
<path d="M317.403 201.152H353.119" stroke="#B2B2B2" stroke-miterlimit="10"/>
<path d="M261.84 201.152H312.64" stroke="#B2B2B2" stroke-miterlimit="10"/>
<path d="M220.575 201.152H256.292" stroke="#B2B2B2" stroke-miterlimit="10"/>
<path d="M191.205 201.152H214.23" stroke="#B2B2B2" stroke-miterlimit="10"/>
<path d="M172.768 201.152H186.847" stroke="#B2B2B2" stroke-miterlimit="10"/>
<path d="M358.667 208.643H378.699" stroke="#B2B2B2" stroke-miterlimit="10"/>
<path d="M311.045 208.643H353.905" stroke="#B2B2B2" stroke-miterlimit="10"/>
<path d="M256.292 208.643H305.497" stroke="#B2B2B2" stroke-miterlimit="10"/>
<path d="M209.062 208.643H251.922" stroke="#B2B2B2" stroke-miterlimit="10"/>
<path d="M172.768 208.643H205.491" stroke="#B2B2B2" stroke-miterlimit="10"/>
<path d="M365.024 216.132H378.698" stroke="#B2B2B2" stroke-miterlimit="10"/>
<path d="M321.76 216.132H362.239" stroke="#B2B2B2" stroke-miterlimit="10"/>
<path d="M265.018 216.132H316.212" stroke="#B2B2B2" stroke-miterlimit="10"/>
<path d="M221.373 216.132H261.054" stroke="#B2B2B2" stroke-miterlimit="10"/>
<path d="M188.823 216.132H217.396" stroke="#B2B2B2" stroke-miterlimit="10"/>
<path d="M172.768 216.132H184.061" stroke="#B2B2B2" stroke-miterlimit="10"/>
<path d="M359.072 262.414H378.699" stroke="#B2B2B2" stroke-miterlimit="10"/>
<path d="M317.403 262.414H353.119" stroke="#B2B2B2" stroke-miterlimit="10"/>
<path d="M261.84 262.414H312.64" stroke="#B2B2B2" stroke-miterlimit="10"/>
<path d="M220.575 262.414H256.292" stroke="#B2B2B2" stroke-miterlimit="10"/>
<path d="M191.205 262.414H214.23" stroke="#B2B2B2" stroke-miterlimit="10"/>
<path d="M172.768 262.414H186.847" stroke="#B2B2B2" stroke-miterlimit="10"/>
<path d="M358.667 269.904H378.699" stroke="#B2B2B2" stroke-miterlimit="10"/>
<path d="M311.045 269.904H353.905" stroke="#B2B2B2" stroke-miterlimit="10"/>
<path d="M256.292 269.904H305.497" stroke="#B2B2B2" stroke-miterlimit="10"/>
<path d="M209.062 269.904H251.922" stroke="#B2B2B2" stroke-miterlimit="10"/>
<path d="M172.768 269.904H205.491" stroke="#B2B2B2" stroke-miterlimit="10"/>
<path d="M365.024 277.394H378.698" stroke="#B2B2B2" stroke-miterlimit="10"/>
<path d="M321.76 277.394H362.239" stroke="#B2B2B2" stroke-miterlimit="10"/>
<path d="M265.018 277.394H316.212" stroke="#B2B2B2" stroke-miterlimit="10"/>
<path d="M221.373 277.394H261.054" stroke="#B2B2B2" stroke-miterlimit="10"/>
<path d="M188.823 277.394H217.396" stroke="#B2B2B2" stroke-miterlimit="10"/>
<path d="M172.768 277.394H184.061" stroke="#B2B2B2" stroke-miterlimit="10"/>
<path d="M359.072 323.675H378.699" stroke="#B2B2B2" stroke-miterlimit="10"/>
<path d="M317.403 323.675H353.119" stroke="#B2B2B2" stroke-miterlimit="10"/>
<path d="M261.84 323.675H312.64" stroke="#B2B2B2" stroke-miterlimit="10"/>
<path d="M220.575 323.675H256.292" stroke="#B2B2B2" stroke-miterlimit="10"/>
<path d="M191.205 323.675H214.23" stroke="#B2B2B2" stroke-miterlimit="10"/>
<path d="M172.768 323.675H186.847" stroke="#B2B2B2" stroke-miterlimit="10"/>
<path d="M358.667 331.165H378.699" stroke="#B2B2B2" stroke-miterlimit="10"/>
<path d="M311.045 331.165H353.905" stroke="#B2B2B2" stroke-miterlimit="10"/>
<path d="M256.292 331.165H305.497" stroke="#B2B2B2" stroke-miterlimit="10"/>
<path d="M209.062 331.165H251.922" stroke="#B2B2B2" stroke-miterlimit="10"/>
<path d="M172.768 331.165H205.491" stroke="#B2B2B2" stroke-miterlimit="10"/>
<path d="M365.024 338.655H378.698" stroke="#B2B2B2" stroke-miterlimit="10"/>
<path d="M321.76 338.655H362.239" stroke="#B2B2B2" stroke-miterlimit="10"/>
<path d="M265.018 338.655H316.212" stroke="#B2B2B2" stroke-miterlimit="10"/>
<path d="M221.373 338.655H261.054" stroke="#B2B2B2" stroke-miterlimit="10"/>
<path d="M188.823 338.655H217.396" stroke="#B2B2B2" stroke-miterlimit="10"/>
<path d="M172.768 338.655H184.061" stroke="#B2B2B2" stroke-miterlimit="10"/>
<path d="M174.095 186.951V173.803H182.03V175.216H175.687V179.658H181.619V181.071H175.687V185.539H182.132V186.951H174.095ZM186.209 181.019V186.951H184.694V177.09H186.158V178.631H186.286C186.517 178.13 186.868 177.728 187.339 177.424C187.81 177.116 188.417 176.962 189.162 176.962C189.83 176.962 190.414 177.099 190.915 177.373C191.416 177.642 191.805 178.053 192.083 178.605C192.361 179.153 192.5 179.846 192.5 180.685V186.951H190.985V180.788C190.985 180.013 190.784 179.41 190.382 178.978C189.98 178.541 189.427 178.323 188.726 178.323C188.242 178.323 187.81 178.428 187.429 178.637C187.052 178.847 186.755 179.153 186.536 179.555C186.318 179.958 186.209 180.446 186.209 181.019ZM199.275 187.157C198.351 187.157 197.555 186.938 196.887 186.502C196.219 186.065 195.706 185.464 195.346 184.698C194.987 183.932 194.807 183.056 194.807 182.072C194.807 181.071 194.991 180.187 195.359 179.421C195.731 178.65 196.249 178.049 196.913 177.617C197.58 177.18 198.359 176.962 199.249 176.962C199.943 176.962 200.568 177.09 201.124 177.347C201.68 177.604 202.136 177.963 202.491 178.426C202.847 178.888 203.067 179.427 203.153 180.043H201.638C201.522 179.594 201.265 179.196 200.867 178.849C200.473 178.498 199.943 178.323 199.275 178.323C198.684 178.323 198.167 178.477 197.721 178.785C197.281 179.089 196.936 179.519 196.688 180.075C196.444 180.628 196.322 181.276 196.322 182.021C196.322 182.783 196.442 183.446 196.681 184.011C196.925 184.576 197.268 185.014 197.709 185.327C198.154 185.639 198.676 185.796 199.275 185.796C199.669 185.796 200.026 185.727 200.347 185.59C200.668 185.453 200.94 185.256 201.163 185C201.385 184.743 201.543 184.435 201.638 184.075H203.153C203.067 184.657 202.855 185.181 202.517 185.648C202.183 186.11 201.74 186.478 201.188 186.752C200.64 187.022 200.003 187.157 199.275 187.157ZM205.368 186.951V177.09H206.831V178.58H206.934C207.114 178.092 207.439 177.696 207.91 177.392C208.381 177.088 208.911 176.936 209.502 176.936C209.613 176.936 209.752 176.938 209.919 176.943C210.086 176.947 210.212 176.953 210.298 176.962V178.503C210.247 178.49 210.129 178.47 209.945 178.445C209.765 178.415 209.575 178.4 209.374 178.4C208.894 178.4 208.466 178.5 208.09 178.702C207.717 178.898 207.422 179.172 207.204 179.523C206.99 179.87 206.883 180.266 206.883 180.711V186.951H205.368ZM213.37 190.649C213.113 190.649 212.884 190.628 212.683 190.585C212.482 190.546 212.343 190.508 212.266 190.469L212.651 189.134C213.019 189.228 213.344 189.262 213.627 189.237C213.909 189.211 214.16 189.085 214.378 188.858C214.6 188.635 214.804 188.274 214.988 187.773L215.27 187.003L211.624 177.09H213.267L215.989 184.948H216.092L218.814 177.09H220.458L216.272 188.389C216.083 188.899 215.85 189.32 215.572 189.654C215.294 189.992 214.971 190.242 214.603 190.405C214.239 190.568 213.828 190.649 213.37 190.649ZM222.457 190.649V177.09H223.921V178.657H224.101C224.212 178.485 224.366 178.267 224.563 178.002C224.764 177.732 225.051 177.493 225.423 177.283C225.8 177.069 226.309 176.962 226.951 176.962C227.782 176.962 228.513 177.169 229.147 177.585C229.78 178 230.275 178.588 230.63 179.35C230.985 180.112 231.163 181.011 231.163 182.046C231.163 183.091 230.985 183.996 230.63 184.762C230.275 185.524 229.782 186.114 229.153 186.534C228.524 186.949 227.799 187.157 226.977 187.157C226.344 187.157 225.836 187.052 225.455 186.842C225.075 186.628 224.781 186.386 224.576 186.117C224.371 185.843 224.212 185.616 224.101 185.436H223.972V190.649H222.457ZM223.947 182.021C223.947 182.765 224.056 183.422 224.274 183.992C224.492 184.557 224.811 185 225.231 185.321C225.65 185.637 226.164 185.796 226.772 185.796C227.405 185.796 227.934 185.629 228.357 185.295C228.785 184.957 229.106 184.503 229.32 183.934C229.539 183.36 229.648 182.723 229.648 182.021C229.648 181.327 229.541 180.702 229.327 180.146C229.117 179.585 228.798 179.142 228.37 178.817C227.946 178.488 227.414 178.323 226.772 178.323C226.155 178.323 225.637 178.479 225.218 178.791C224.799 179.1 224.482 179.532 224.268 180.088C224.054 180.64 223.947 181.285 223.947 182.021ZM237.762 177.09V178.374H232.652V177.09H237.762ZM234.142 174.728H235.657V184.126C235.657 184.554 235.719 184.875 235.843 185.089C235.971 185.299 236.134 185.44 236.331 185.513C236.532 185.582 236.744 185.616 236.966 185.616C237.133 185.616 237.27 185.607 237.377 185.59C237.484 185.569 237.57 185.552 237.634 185.539L237.942 186.9C237.839 186.938 237.696 186.977 237.512 187.015C237.328 187.058 237.095 187.08 236.812 187.08C236.384 187.08 235.965 186.988 235.554 186.804C235.147 186.619 234.809 186.339 234.54 185.963C234.274 185.586 234.142 185.111 234.142 184.537V174.728ZM245.126 190.649V177.09H246.59V178.657H246.77C246.881 178.485 247.035 178.267 247.232 178.002C247.433 177.732 247.72 177.493 248.092 177.283C248.469 177.069 248.978 176.962 249.62 176.962C250.45 176.962 251.182 177.169 251.816 177.585C252.449 178 252.943 178.588 253.299 179.35C253.654 180.112 253.831 181.011 253.831 182.046C253.831 183.091 253.654 183.996 253.299 184.762C252.943 185.524 252.451 186.114 251.822 186.534C251.193 186.949 250.467 187.157 249.646 187.157C249.012 187.157 248.505 187.052 248.124 186.842C247.743 186.628 247.45 186.386 247.245 186.117C247.039 185.843 246.881 185.616 246.77 185.436H246.641V190.649H245.126ZM246.616 182.021C246.616 182.765 246.725 183.422 246.943 183.992C247.161 184.557 247.48 185 247.899 185.321C248.319 185.637 248.833 185.796 249.44 185.796C250.074 185.796 250.602 185.629 251.026 185.295C251.454 184.957 251.775 184.503 251.989 183.934C252.207 183.36 252.316 182.723 252.316 182.021C252.316 181.327 252.209 180.702 251.995 180.146C251.786 179.585 251.467 179.142 251.039 178.817C250.615 178.488 250.082 178.323 249.44 178.323C248.824 178.323 248.306 178.479 247.887 178.791C247.467 179.1 247.15 179.532 246.936 180.088C246.722 180.64 246.616 181.285 246.616 182.021ZM257.658 181.019V186.951H256.143V173.803H257.658V178.631H257.786C258.017 178.122 258.364 177.717 258.826 177.418C259.293 177.114 259.913 176.962 260.688 176.962C261.36 176.962 261.948 177.097 262.453 177.366C262.958 177.632 263.35 178.04 263.628 178.592C263.911 179.14 264.052 179.838 264.052 180.685V186.951H262.537V180.788C262.537 180.005 262.334 179.399 261.927 178.971C261.525 178.539 260.966 178.323 260.251 178.323C259.755 178.323 259.31 178.428 258.916 178.637C258.527 178.847 258.218 179.153 257.992 179.555C257.769 179.958 257.658 180.446 257.658 181.019ZM270.83 187.157C269.94 187.157 269.158 186.945 268.487 186.521C267.819 186.097 267.297 185.505 266.92 184.743C266.548 183.981 266.362 183.091 266.362 182.072C266.362 181.045 266.548 180.148 266.92 179.382C267.297 178.616 267.819 178.021 268.487 177.597C269.158 177.174 269.94 176.962 270.83 176.962C271.72 176.962 272.499 177.174 273.167 177.597C273.839 178.021 274.361 178.616 274.733 179.382C275.11 180.148 275.298 181.045 275.298 182.072C275.298 183.091 275.11 183.981 274.733 184.743C274.361 185.505 273.839 186.097 273.167 186.521C272.499 186.945 271.72 187.157 270.83 187.157ZM270.83 185.796C271.506 185.796 272.062 185.622 272.499 185.276C272.936 184.929 273.259 184.473 273.468 183.908C273.678 183.343 273.783 182.731 273.783 182.072C273.783 181.413 273.678 180.799 273.468 180.23C273.259 179.66 272.936 179.2 272.499 178.849C272.062 178.498 271.506 178.323 270.83 178.323C270.154 178.323 269.597 178.498 269.161 178.849C268.724 179.2 268.401 179.66 268.191 180.23C267.982 180.799 267.877 181.413 267.877 182.072C267.877 182.731 267.982 183.343 268.191 183.908C268.401 184.473 268.724 184.929 269.161 185.276C269.597 185.622 270.154 185.796 270.83 185.796ZM279.126 181.019V186.951H277.611V177.09H279.075V178.631H279.203C279.434 178.13 279.785 177.728 280.256 177.424C280.727 177.116 281.334 176.962 282.079 176.962C282.747 176.962 283.331 177.099 283.832 177.373C284.332 177.642 284.722 178.053 285 178.605C285.278 179.153 285.417 179.846 285.417 180.685V186.951H283.902V180.788C283.902 180.013 283.701 179.41 283.299 178.978C282.897 178.541 282.344 178.323 281.643 178.323C281.159 178.323 280.727 178.428 280.346 178.637C279.969 178.847 279.672 179.153 279.453 179.555C279.235 179.958 279.126 180.446 279.126 181.019ZM292.32 187.157C291.37 187.157 290.551 186.947 289.862 186.527C289.177 186.104 288.648 185.513 288.276 184.756C287.908 183.994 287.724 183.108 287.724 182.098C287.724 181.088 287.908 180.197 288.276 179.427C288.648 178.652 289.166 178.049 289.83 177.617C290.497 177.18 291.276 176.962 292.166 176.962C292.68 176.962 293.187 177.047 293.688 177.219C294.189 177.39 294.644 177.668 295.055 178.053C295.466 178.434 295.794 178.939 296.038 179.568C296.282 180.197 296.404 180.972 296.404 181.892V182.534H288.802V181.225H294.863C294.863 180.668 294.751 180.172 294.529 179.735C294.311 179.299 293.998 178.954 293.592 178.702C293.189 178.449 292.714 178.323 292.166 178.323C291.563 178.323 291.041 178.473 290.6 178.772C290.163 179.068 289.827 179.453 289.592 179.928C289.357 180.403 289.239 180.912 289.239 181.456V182.329C289.239 183.074 289.367 183.705 289.624 184.223C289.885 184.736 290.247 185.128 290.709 185.398C291.171 185.663 291.708 185.796 292.32 185.796C292.718 185.796 293.078 185.74 293.399 185.629C293.724 185.513 294.005 185.342 294.24 185.115C294.475 184.884 294.657 184.597 294.786 184.255L296.249 184.666C296.095 185.162 295.836 185.599 295.473 185.975C295.109 186.348 294.659 186.639 294.124 186.848C293.589 187.054 292.988 187.157 292.32 187.157Z" fill="#263238"/>
<path d="M173.889 143.745V133.884H175.353V135.425H175.481C175.687 134.898 176.018 134.49 176.476 134.199C176.934 133.903 177.484 133.756 178.126 133.756C178.777 133.756 179.318 133.903 179.751 134.199C180.187 134.49 180.527 134.898 180.771 135.425H180.874C181.127 134.916 181.505 134.511 182.01 134.212C182.515 133.908 183.121 133.756 183.827 133.756C184.709 133.756 185.43 134.032 185.991 134.584C186.551 135.132 186.832 135.986 186.832 137.145V143.745H185.317V137.145C185.317 136.418 185.118 135.898 184.72 135.585C184.321 135.273 183.853 135.117 183.314 135.117C182.62 135.117 182.083 135.326 181.702 135.746C181.321 136.161 181.131 136.687 181.131 137.325V143.745H179.59V136.991C179.59 136.431 179.408 135.979 179.044 135.637C178.681 135.29 178.212 135.117 177.638 135.117C177.245 135.117 176.877 135.222 176.534 135.431C176.196 135.641 175.922 135.932 175.712 136.304C175.507 136.673 175.404 137.098 175.404 137.582V143.745H173.889ZM193.608 143.951C192.718 143.951 191.937 143.739 191.265 143.315C190.597 142.891 190.075 142.298 189.698 141.537C189.326 140.775 189.14 139.885 189.14 138.866C189.14 137.839 189.326 136.942 189.698 136.176C190.075 135.41 190.597 134.815 191.265 134.391C191.937 133.968 192.718 133.756 193.608 133.756C194.498 133.756 195.277 133.968 195.945 134.391C196.617 134.815 197.139 135.41 197.511 136.176C197.888 136.942 198.076 137.839 198.076 138.866C198.076 139.885 197.888 140.775 197.511 141.537C197.139 142.298 196.617 142.891 195.945 143.315C195.277 143.739 194.498 143.951 193.608 143.951ZM193.608 142.59C194.284 142.59 194.841 142.416 195.277 142.07C195.714 141.723 196.037 141.267 196.246 140.702C196.456 140.137 196.561 139.525 196.561 138.866C196.561 138.207 196.456 137.593 196.246 137.023C196.037 136.454 195.714 135.994 195.277 135.643C194.841 135.292 194.284 135.117 193.608 135.117C192.932 135.117 192.375 135.292 191.939 135.643C191.502 135.994 191.179 136.454 190.969 137.023C190.76 137.593 190.655 138.207 190.655 138.866C190.655 139.525 190.76 140.137 190.969 140.702C191.179 141.267 191.502 141.723 191.939 142.07C192.375 142.416 192.932 142.59 193.608 142.59ZM200.594 143.745V130.597H202.109V135.451H202.238C202.349 135.279 202.503 135.061 202.7 134.796C202.901 134.526 203.188 134.286 203.56 134.077C203.937 133.863 204.446 133.756 205.088 133.756C205.919 133.756 206.65 133.963 207.284 134.378C207.917 134.794 208.412 135.382 208.767 136.144C209.122 136.906 209.3 137.805 209.3 138.84C209.3 139.885 209.122 140.79 208.767 141.556C208.412 142.318 207.919 142.908 207.29 143.328C206.661 143.743 205.936 143.951 205.114 143.951C204.481 143.951 203.973 143.846 203.592 143.636C203.212 143.422 202.918 143.18 202.713 142.911C202.508 142.637 202.349 142.41 202.238 142.23H202.058V143.745H200.594ZM202.084 138.815C202.084 139.559 202.193 140.216 202.411 140.786C202.629 141.35 202.948 141.793 203.368 142.114C203.787 142.431 204.301 142.59 204.909 142.59C205.542 142.59 206.071 142.423 206.494 142.089C206.922 141.751 207.243 141.297 207.457 140.728C207.676 140.154 207.785 139.517 207.785 138.815C207.785 138.121 207.678 137.496 207.464 136.94C207.254 136.379 206.935 135.936 206.507 135.611C206.083 135.282 205.551 135.117 204.909 135.117C204.292 135.117 203.774 135.273 203.355 135.585C202.935 135.894 202.619 136.326 202.405 136.882C202.191 137.434 202.084 138.078 202.084 138.815ZM211.617 143.745V133.884H213.132V143.745H211.617ZM212.388 132.241C212.092 132.241 211.838 132.14 211.624 131.939C211.414 131.738 211.309 131.496 211.309 131.213C211.309 130.931 211.414 130.689 211.624 130.488C211.838 130.287 212.092 130.186 212.388 130.186C212.683 130.186 212.936 130.287 213.145 130.488C213.359 130.689 213.466 130.931 213.466 131.213C213.466 131.496 213.359 131.738 213.145 131.939C212.936 132.14 212.683 132.241 212.388 132.241ZM217.423 130.597V143.745H215.907V130.597H217.423ZM224.332 143.951C223.382 143.951 222.562 143.741 221.873 143.321C221.188 142.898 220.66 142.307 220.287 141.55C219.919 140.788 219.735 139.902 219.735 138.892C219.735 137.882 219.919 136.991 220.287 136.221C220.66 135.446 221.178 134.843 221.841 134.411C222.509 133.974 223.288 133.756 224.178 133.756C224.692 133.756 225.199 133.841 225.699 134.013C226.2 134.184 226.656 134.462 227.067 134.847C227.478 135.228 227.805 135.733 228.049 136.362C228.293 136.991 228.415 137.766 228.415 138.686V139.328H220.814V138.019H226.874C226.874 137.462 226.763 136.966 226.54 136.529C226.322 136.093 226.01 135.748 225.603 135.496C225.201 135.243 224.726 135.117 224.178 135.117C223.574 135.117 223.052 135.267 222.611 135.566C222.175 135.861 221.839 136.247 221.604 136.722C221.368 137.197 221.25 137.706 221.25 138.25V139.123C221.25 139.867 221.379 140.499 221.636 141.017C221.897 141.53 222.258 141.922 222.721 142.191C223.183 142.457 223.72 142.59 224.332 142.59C224.73 142.59 225.09 142.534 225.411 142.423C225.736 142.307 226.016 142.136 226.252 141.909C226.487 141.678 226.669 141.391 226.797 141.049L228.261 141.46C228.107 141.956 227.848 142.393 227.484 142.769C227.12 143.142 226.671 143.433 226.136 143.642C225.601 143.848 225 143.951 224.332 143.951ZM236.01 143.745V130.597H243.945V132.01H237.602V136.452H243.534V137.864H237.602V142.333H244.048V143.745H236.01ZM248.124 137.813V143.745H246.609V133.884H248.073V135.425H248.201C248.432 134.924 248.783 134.522 249.254 134.218C249.725 133.91 250.333 133.756 251.077 133.756C251.745 133.756 252.329 133.893 252.83 134.167C253.331 134.436 253.72 134.847 253.998 135.399C254.277 135.947 254.416 136.64 254.416 137.479V143.745H252.901V137.582C252.901 136.807 252.699 136.204 252.297 135.772C251.895 135.335 251.343 135.117 250.641 135.117C250.157 135.117 249.725 135.222 249.344 135.431C248.967 135.641 248.67 135.947 248.452 136.349C248.233 136.752 248.124 137.24 248.124 137.813ZM261.19 143.951C260.266 143.951 259.47 143.732 258.802 143.296C258.134 142.859 257.621 142.258 257.261 141.492C256.902 140.726 256.722 139.85 256.722 138.866C256.722 137.864 256.906 136.981 257.274 136.215C257.647 135.444 258.164 134.843 258.828 134.411C259.495 133.974 260.274 133.756 261.165 133.756C261.858 133.756 262.483 133.884 263.039 134.141C263.596 134.398 264.051 134.757 264.407 135.219C264.762 135.682 264.982 136.221 265.068 136.837H263.553C263.437 136.388 263.18 135.99 262.782 135.643C262.389 135.292 261.858 135.117 261.19 135.117C260.6 135.117 260.082 135.271 259.637 135.579C259.196 135.883 258.851 136.313 258.603 136.869C258.359 137.422 258.237 138.07 258.237 138.815C258.237 139.576 258.357 140.24 258.597 140.805C258.841 141.37 259.183 141.808 259.624 142.121C260.069 142.433 260.591 142.59 261.19 142.59C261.584 142.59 261.941 142.521 262.262 142.384C262.583 142.247 262.855 142.05 263.078 141.793C263.3 141.537 263.459 141.229 263.553 140.869H265.068C264.982 141.451 264.77 141.975 264.432 142.442C264.099 142.904 263.656 143.272 263.103 143.546C262.556 143.816 261.918 143.951 261.19 143.951ZM267.283 143.745V133.884H268.747V135.374H268.849C269.029 134.886 269.354 134.49 269.825 134.186C270.296 133.882 270.827 133.73 271.417 133.73C271.529 133.73 271.668 133.732 271.835 133.736C272.001 133.741 272.128 133.747 272.213 133.756V135.297C272.162 135.284 272.044 135.264 271.86 135.239C271.68 135.209 271.49 135.194 271.289 135.194C270.809 135.194 270.381 135.294 270.005 135.496C269.632 135.692 269.337 135.966 269.119 136.317C268.905 136.664 268.798 137.06 268.798 137.505V143.745H267.283ZM275.285 147.443C275.028 147.443 274.799 147.422 274.598 147.379C274.397 147.34 274.258 147.302 274.181 147.263L274.566 145.928C274.934 146.022 275.26 146.056 275.542 146.031C275.824 146.005 276.075 145.879 276.293 145.652C276.516 145.429 276.719 145.068 276.903 144.567L277.186 143.796L273.539 133.884H275.183L277.905 141.742H278.007L280.729 133.884H282.373L278.187 145.183C277.999 145.692 277.765 146.114 277.487 146.448C277.209 146.786 276.886 147.036 276.518 147.199C276.154 147.362 275.743 147.443 275.285 147.443ZM284.373 147.443V133.884H285.836V135.451H286.016C286.127 135.279 286.281 135.061 286.478 134.796C286.679 134.526 286.966 134.286 287.339 134.077C287.715 133.863 288.225 133.756 288.867 133.756C289.697 133.756 290.429 133.963 291.062 134.378C291.696 134.794 292.19 135.382 292.545 136.144C292.9 136.906 293.078 137.805 293.078 138.84C293.078 139.885 292.9 140.79 292.545 141.556C292.19 142.318 291.698 142.908 291.069 143.328C290.439 143.743 289.714 143.951 288.892 143.951C288.259 143.951 287.752 143.846 287.371 143.636C286.99 143.422 286.697 143.18 286.491 142.911C286.286 142.637 286.127 142.41 286.016 142.23H285.888V147.443H284.373ZM285.862 138.815C285.862 139.559 285.971 140.216 286.189 140.786C286.408 141.35 286.727 141.793 287.146 142.114C287.565 142.431 288.079 142.59 288.687 142.59C289.32 142.59 289.849 142.423 290.273 142.089C290.701 141.751 291.021 141.297 291.235 140.728C291.454 140.154 291.563 139.517 291.563 138.815C291.563 138.121 291.456 137.496 291.242 136.94C291.032 136.379 290.713 135.936 290.285 135.611C289.862 135.282 289.329 135.117 288.687 135.117C288.07 135.117 287.553 135.273 287.133 135.585C286.714 135.894 286.397 136.326 286.183 136.882C285.969 137.434 285.862 138.078 285.862 138.815ZM299.678 133.884V135.168H294.567V133.884H299.678ZM296.057 131.522H297.572V140.92C297.572 141.348 297.634 141.669 297.758 141.883C297.887 142.093 298.049 142.234 298.246 142.307C298.447 142.376 298.659 142.41 298.882 142.41C299.049 142.41 299.185 142.401 299.292 142.384C299.399 142.363 299.485 142.346 299.549 142.333L299.857 143.694C299.755 143.732 299.611 143.771 299.427 143.809C299.243 143.852 299.01 143.874 298.728 143.874C298.3 143.874 297.88 143.781 297.469 143.597C297.063 143.413 296.725 143.133 296.455 142.756C296.19 142.38 296.057 141.905 296.057 141.331V131.522ZM301.957 143.745V133.884H303.472V143.745H301.957ZM302.727 132.241C302.432 132.241 302.177 132.14 301.963 131.939C301.753 131.738 301.649 131.496 301.649 131.213C301.649 130.931 301.753 130.689 301.963 130.488C302.177 130.287 302.432 130.186 302.727 130.186C303.022 130.186 303.275 130.287 303.485 130.488C303.699 130.689 303.806 130.931 303.806 131.213C303.806 131.496 303.699 131.738 303.485 131.939C303.275 132.14 303.022 132.241 302.727 132.241ZM310.253 143.951C309.363 143.951 308.582 143.739 307.91 143.315C307.242 142.891 306.72 142.298 306.343 141.537C305.971 140.775 305.785 139.885 305.785 138.866C305.785 137.839 305.971 136.942 306.343 136.176C306.72 135.41 307.242 134.815 307.91 134.391C308.582 133.968 309.363 133.756 310.253 133.756C311.143 133.756 311.922 133.968 312.59 134.391C313.262 134.815 313.784 135.41 314.156 136.176C314.533 136.942 314.721 137.839 314.721 138.866C314.721 139.885 314.533 140.775 314.156 141.537C313.784 142.298 313.262 142.891 312.59 143.315C311.922 143.739 311.143 143.951 310.253 143.951ZM310.253 142.59C310.929 142.59 311.486 142.416 311.922 142.07C312.359 141.723 312.682 141.267 312.891 140.702C313.101 140.137 313.206 139.525 313.206 138.866C313.206 138.207 313.101 137.593 312.891 137.023C312.682 136.454 312.359 135.994 311.922 135.643C311.486 135.292 310.929 135.117 310.253 135.117C309.577 135.117 309.02 135.292 308.584 135.643C308.147 135.994 307.824 136.454 307.614 137.023C307.405 137.593 307.3 138.207 307.3 138.866C307.3 139.525 307.405 140.137 307.614 140.702C307.824 141.267 308.147 141.723 308.584 142.07C309.02 142.416 309.577 142.59 310.253 142.59ZM318.549 137.813V143.745H317.034V133.884H318.498V135.425H318.626C318.857 134.924 319.208 134.522 319.679 134.218C320.15 133.91 320.757 133.756 321.502 133.756C322.17 133.756 322.754 133.893 323.255 134.167C323.756 134.436 324.145 134.847 324.423 135.399C324.701 135.947 324.841 136.64 324.841 137.479V143.745H323.325V137.582C323.325 136.807 323.124 136.204 322.722 135.772C322.32 135.335 321.768 135.117 321.066 135.117C320.582 135.117 320.15 135.222 319.769 135.431C319.392 135.641 319.095 135.947 318.876 136.349C318.658 136.752 318.549 137.24 318.549 137.813Z" fill="#263238"/>
<path d="M163.348 162.084H380.363" stroke="#263238" stroke-miterlimit="10"/>
<path d="M163.348 227.021H380.363" stroke="#263238" stroke-miterlimit="10"/>
<path d="M163.348 293.298H380.363" stroke="#263238" stroke-miterlimit="10"/>
<path d="M163.348 361.876H380.363" stroke="#263238" stroke-miterlimit="10"/>
<path d="M212.646 106.486L219.997 108.162L221.696 100.707L214.634 99.1003C214.634 98.8807 214.634 98.6726 214.634 98.4645C214.631 96.1971 214.176 93.9531 213.293 91.8645L219.072 87.241L214.299 81.2536L208.82 85.6228C206.89 83.9868 204.619 82.8022 202.174 82.1552V75.0234H194.522V81.8778C192.001 82.3721 189.628 83.4399 187.586 84.9986L182.05 80.5716L177.276 86.559L182.686 90.8705C181.542 93.1388 180.926 95.6359 180.882 98.1756L173.832 99.7822L175.531 107.249L182.466 105.654C183.521 107.882 185.047 109.853 186.939 111.433L183.703 118.149L190.638 121.466L193.817 114.855C196.168 115.437 198.618 115.496 200.995 115.028L204.3 121.871L211.236 118.554L208.034 111.896C209.935 110.437 211.506 108.594 212.646 106.486ZM190.21 98.4645C190.21 96.9786 190.651 95.526 191.476 94.2904C192.302 93.0549 193.475 92.0919 194.848 91.5233C196.221 90.9546 197.732 90.8058 199.189 91.0957C200.647 91.3856 201.985 92.1012 203.036 93.1519C204.087 94.2027 204.802 95.5414 205.092 96.9988C205.382 98.4562 205.233 99.9669 204.665 101.34C204.096 102.713 203.133 103.886 201.898 104.712C200.662 105.537 199.209 105.978 197.723 105.978C196.736 105.979 195.759 105.786 194.846 105.409C193.934 105.032 193.105 104.479 192.407 103.781C191.709 103.083 191.156 102.254 190.779 101.342C190.402 100.429 190.209 99.4516 190.21 98.4645Z" fill="#92E3A9" stroke="#263238" stroke-linecap="round" stroke-linejoin="round"/>
<path d="M173.404 41.3296C173.404 44.6816 169.636 45.8953 169.624 48.4498V48.6232H173.277V49.779H168.399V48.8312C168.399 45.2365 172.167 44.5429 172.167 41.4105C172.167 40.2546 171.786 39.6652 170.861 39.6652C169.936 39.6652 169.555 40.324 169.555 41.3065V42.2427H168.399V41.3412C168.399 39.642 169.173 38.5093 170.896 38.5093C172.618 38.5093 173.404 39.6305 173.404 41.3296Z" fill="#263238"/>
<path d="M179.484 41.3182V41.6072C179.547 42.088 179.448 42.5761 179.203 42.9946C178.958 43.4131 178.581 43.7383 178.131 43.9189C178.578 44.1044 178.951 44.4305 179.196 44.8478C179.44 45.2651 179.541 45.7506 179.484 46.2307V47.086C179.484 48.7852 178.686 49.8948 176.975 49.8948C175.265 49.8948 174.479 48.7389 174.479 47.086V46.2885H175.635V47.1323C175.635 48.1263 176.051 48.7274 176.941 48.7274C177.831 48.7274 178.247 48.1494 178.247 47.0167V46.1613C178.247 45.0054 177.785 44.5431 176.848 44.5084H176.178V43.3988H176.906C177.099 43.4006 177.29 43.3609 177.466 43.2822C177.642 43.2036 177.799 43.0879 177.926 42.9431C178.053 42.7983 178.148 42.6277 178.203 42.4431C178.259 42.2584 178.274 42.064 178.247 41.873V41.3644C178.247 40.2086 177.842 39.6306 176.941 39.6306C176.039 39.6306 175.635 40.2548 175.635 41.2489V41.8268H174.479V41.3182C174.479 39.6191 175.276 38.521 176.975 38.521C178.675 38.521 179.484 39.6191 179.484 41.3182Z" fill="#263238"/>
<path d="M181.876 42.1621V43.6994H180.72V42.1621H181.876ZM181.876 48.2073V49.7446H180.72V48.2073H181.876Z" fill="#263238"/>
<path d="M184.431 43.1562C184.592 42.8661 184.831 42.6269 185.121 42.4655C185.411 42.3042 185.741 42.2271 186.072 42.2431C187.505 42.2431 188.141 43.2833 188.141 44.8784V47.0515C188.141 48.7506 187.332 49.8603 185.633 49.8603C183.934 49.8603 183.136 48.7044 183.136 47.0515V46.3002H184.292V47.1324C184.292 48.1265 184.697 48.7275 185.587 48.7275C186.477 48.7275 186.893 48.1265 186.893 47.1324V44.9709C186.893 43.9653 186.477 43.3643 185.587 43.3643C185.427 43.3515 185.267 43.3719 185.116 43.4242C184.965 43.4765 184.826 43.5596 184.709 43.6683C184.592 43.7769 184.498 43.9087 184.434 44.0553C184.37 44.202 184.338 44.3602 184.338 44.5201V44.7744H183.182L183.495 38.6021H187.898V39.7579H184.627L184.431 43.1562Z" fill="#263238"/>
<path d="M194.279 41.3067V41.5032H193.123V41.2257C193.123 40.2201 192.707 39.6306 191.805 39.6306C190.904 39.6306 190.453 40.2432 190.453 41.4338V43.9189C190.59 43.5588 190.84 43.2523 191.164 43.0443C191.489 42.8362 191.871 42.7377 192.256 42.7631C193.678 42.7631 194.313 43.7918 194.313 45.3984V47.086C194.313 48.7852 193.47 49.8948 191.771 49.8948C190.071 49.8948 189.216 48.7389 189.216 47.086V41.376C189.216 39.6191 190.014 38.521 191.771 38.521C193.527 38.521 194.279 39.6075 194.279 41.3067ZM190.453 45.4562V47.1323C190.453 48.1263 190.869 48.7274 191.771 48.7274C192.672 48.7274 193.088 48.1263 193.088 47.1323V45.4562C193.088 44.4622 192.661 43.8611 191.771 43.8611C190.881 43.8611 190.453 44.4622 190.453 45.4562Z" fill="#263238"/>
<path d="M315.611 41.792H312.479V49.6404H315.611V41.792Z" fill="#263238"/>
<path d="M319.795 40.2202H316.663V49.6406H319.795V40.2202Z" fill="#263238"/>
<path d="M323.98 39.0991H320.847V49.6291H323.98V39.0991Z" fill="#263238"/>
<path d="M328.164 37.1572H325.031V49.6291H328.164V37.1572Z" fill="#263238"/>
<path d="M367.059 49.4206H348.184V37.8618H367.059V49.4206ZM349.27 48.3687H366.007V38.9599H349.224L349.27 48.3687Z" fill="#263238"/>
<path d="M360.736 40.0933H350.796V47.2366H360.736V40.0933Z" fill="#263238"/>
<path d="M368.723 42.312H366.354V45.0283H368.723V42.312Z" fill="#263238"/>
<path d="M341.271 46.8663C341.146 46.8685 341.022 46.8365 340.913 46.7738C337.087 44.4621 334.556 46.612 334.44 46.6929C334.372 46.7547 334.292 46.8021 334.205 46.8322C334.118 46.8623 334.026 46.8744 333.934 46.8679C333.842 46.8615 333.753 46.8365 333.671 46.7945C333.589 46.7525 333.516 46.6943 333.458 46.6236C333.358 46.4876 333.311 46.3198 333.326 46.1517C333.341 45.9836 333.416 45.8267 333.539 45.7104C333.677 45.5948 336.914 42.8207 341.63 45.6295C341.769 45.7032 341.88 45.8223 341.943 45.9672C342.005 46.1122 342.017 46.2742 341.975 46.4265C341.933 46.5788 341.841 46.7123 341.713 46.8049C341.585 46.8975 341.429 46.9436 341.271 46.9357V46.8663Z" fill="#263238"/>
<path d="M342.693 44.5544C342.566 44.5537 342.442 44.5177 342.335 44.4504C336.787 41.1562 333.088 44.3464 333.03 44.381C332.889 44.5035 332.705 44.5651 332.519 44.552C332.332 44.539 332.159 44.4526 332.036 44.3117C331.914 44.1706 331.852 43.9867 331.865 43.8003C331.878 43.6139 331.964 43.4403 332.105 43.3176C332.105 43.3176 336.636 39.4339 343.051 43.2483C343.182 43.3281 343.282 43.4481 343.339 43.5901C343.395 43.7322 343.403 43.8886 343.363 44.036C343.323 44.1833 343.235 44.3135 343.115 44.407C342.994 44.5005 342.846 44.5522 342.693 44.5544Z" fill="#263238"/>
<path d="M343.941 41.8149C343.817 41.8118 343.694 41.7802 343.583 41.7225C336.567 37.5498 331.897 41.4682 331.712 41.6416C331.571 41.7641 331.387 41.8256 331.201 41.8126C331.015 41.7996 330.841 41.7131 330.718 41.5722C330.657 41.504 330.61 41.4245 330.58 41.3381C330.55 41.2517 330.537 41.1603 330.543 41.0689C330.548 40.9776 330.571 40.8883 330.612 40.806C330.652 40.7238 330.707 40.6503 330.776 40.5897C330.834 40.5897 336.382 35.7928 344.3 40.5088C344.46 40.6029 344.577 40.7565 344.624 40.9362C344.672 41.1158 344.647 41.307 344.554 41.4682C344.49 41.5731 344.4 41.6599 344.292 41.7205C344.185 41.7811 344.065 41.8136 343.941 41.8149Z" fill="#263238"/>
<path d="M337.399 49.8602C338.376 49.8602 339.168 49.0684 339.168 48.0917C339.168 47.115 338.376 46.3232 337.399 46.3232C336.423 46.3232 335.631 47.115 335.631 48.0917C335.631 49.0684 336.423 49.8602 337.399 49.8602Z" fill="#263238"/>
<path d="M504.319 102.787C504.393 103.014 504.534 103.212 504.725 103.354C504.915 103.497 505.145 103.578 505.382 103.585C505.482 103.596 505.583 103.596 505.683 103.585C505.958 103.494 506.189 103.304 506.33 103.051C506.471 102.799 506.512 102.503 506.446 102.221C505.638 99.3039 504.386 96.5283 502.735 93.9912C502.672 93.8461 502.579 93.7164 502.461 93.6109C502.343 93.5054 502.204 93.4266 502.053 93.38C501.901 93.3333 501.742 93.3198 501.585 93.3405C501.428 93.3611 501.278 93.4154 501.144 93.4996C501.01 93.5838 500.896 93.696 500.809 93.8284C500.723 93.9608 500.666 94.1104 500.642 94.2668C500.619 94.4232 500.63 94.5829 500.674 94.7348C500.718 94.8868 500.794 95.0274 500.898 95.1471C502.426 97.5019 503.58 100.079 504.319 102.787Z" fill="#F3F5FC"/>
<path d="M444.734 92.4078C444.971 92.5733 445.262 92.6437 445.548 92.6052C445.835 92.5666 446.097 92.422 446.282 92.1997C449.696 88.2736 454.014 85.2371 458.863 83.3522C463.712 81.4673 468.947 80.7907 474.116 81.3807C484.68 82.5366 492.748 86.0042 498.077 91.5871C498.156 91.7516 498.272 91.8951 498.417 92.0059C498.562 92.1167 498.731 92.1918 498.91 92.2249C499.089 92.258 499.274 92.2482 499.448 92.1964C499.623 92.1445 499.783 92.052 499.915 91.9265C500.048 91.801 500.148 91.646 500.209 91.4742C500.27 91.3023 500.289 91.1185 500.266 90.9378C500.242 90.757 500.176 90.5844 500.073 90.4341C499.97 90.2838 499.832 90.16 499.672 90.0729C493.974 84.0508 485.455 80.3867 474.359 79.1846C468.804 78.505 463.168 79.2161 457.957 81.2538C452.746 83.2915 448.122 86.5921 444.502 90.8589C444.339 91.099 444.273 91.3915 444.316 91.6784C444.358 91.9654 444.508 92.2257 444.734 92.4078Z" fill="#F3F5FC"/>
<path d="M506.735 110.058C500.955 108.983 498.447 103.123 496.447 98.3261C495.985 97.2511 495.557 96.234 495.118 95.367C492.552 90.2234 481.571 84.9642 471.261 85.8195C466.903 86.1894 452.235 88.5705 446.398 103.528C443.797 110.185 443.705 117.537 444.086 122.53C444.104 122.806 444.226 123.065 444.428 123.254C444.63 123.443 444.896 123.548 445.173 123.547H445.265C445.552 123.526 445.818 123.393 446.006 123.177C446.195 122.96 446.29 122.678 446.271 122.391C445.913 117.629 445.982 110.636 448.432 104.36C453.807 90.5933 467.4 88.3971 471.434 88.0504C481.537 87.1835 491.2 92.4889 493.142 96.3842C493.546 97.1933 493.962 98.1758 494.401 99.2161C496.505 104.175 499.372 110.971 506.33 112.254C506.613 112.291 506.899 112.221 507.134 112.059C507.369 111.897 507.535 111.653 507.602 111.376C507.635 111.232 507.639 111.083 507.613 110.938C507.588 110.792 507.533 110.654 507.451 110.531C507.37 110.407 507.265 110.302 507.142 110.221C507.018 110.139 506.88 110.084 506.735 110.058Z" fill="#F3F5FC"/>
<path d="M446.271 130.979C446.355 130.99 446.441 130.99 446.525 130.979C446.801 130.898 447.037 130.717 447.187 130.471C447.337 130.225 447.389 129.932 447.334 129.65C447.334 129.65 447.057 128.494 446.768 126.575C446.661 126.352 446.484 126.17 446.265 126.055C446.046 125.94 445.796 125.898 445.552 125.935C445.307 125.973 445.081 126.088 444.907 126.263C444.733 126.439 444.619 126.666 444.583 126.91C444.896 128.91 445.185 130.124 445.196 130.182C445.27 130.41 445.414 130.609 445.606 130.752C445.799 130.895 446.031 130.974 446.271 130.979Z" fill="#F3F5FC"/>
<path d="M506.33 119.189L494.586 110.532C494.305 109.235 493.918 107.963 493.431 106.729C492.275 103.412 487.131 94.5692 478.127 93.3209C472.879 92.5411 467.518 93.2292 462.638 95.309C462.5 95.3634 462.374 95.4454 462.268 95.5499C462.162 95.6545 462.079 95.7794 462.023 95.9172C461.967 96.055 461.939 96.2027 461.942 96.3514C461.945 96.5001 461.978 96.6467 462.039 96.7823C462.1 96.9179 462.188 97.0397 462.297 97.1402C462.407 97.2408 462.536 97.318 462.676 97.3672C462.817 97.4164 462.966 97.4366 463.114 97.4266C463.262 97.4165 463.407 97.3764 463.54 97.3087C468.044 95.4001 472.989 94.776 477.826 95.5055C485.721 96.592 490.356 104.752 491.362 107.48C491.854 108.655 492.218 109.88 492.448 111.133C492.446 111.307 492.485 111.478 492.564 111.633C492.642 111.788 492.757 111.922 492.899 112.023L505.001 120.958C505.19 121.102 505.422 121.179 505.66 121.177C505.878 121.152 506.085 121.064 506.255 120.925C506.425 120.786 506.553 120.602 506.622 120.393C506.691 120.184 506.699 119.96 506.646 119.747C506.592 119.534 506.478 119.34 506.319 119.189H506.33Z" fill="#F3F5FC"/>
<path d="M454.247 126.39C452.339 119.964 451.114 110.751 456.119 103.388C457.264 101.715 458.706 100.266 460.373 99.1116C460.601 98.9348 460.755 98.679 460.804 98.3945C460.853 98.11 460.794 97.8174 460.639 97.5743C460.462 97.349 460.209 97.1971 459.927 97.148C459.645 97.0989 459.355 97.1561 459.113 97.3084C457.227 98.6183 455.594 100.259 454.293 102.152C449.958 108.544 449.207 117.178 452.131 127.026C454.119 133.73 444.537 137.429 444.433 137.498C444.228 137.618 444.065 137.798 443.965 138.014C443.866 138.23 443.836 138.471 443.879 138.705C443.922 138.939 444.036 139.154 444.206 139.32C444.375 139.487 444.592 139.597 444.826 139.636C444.961 139.638 445.095 139.61 445.219 139.556C449.242 138.041 456.304 133.325 454.247 126.39Z" fill="#F3F5FC"/>
<path d="M505.406 127.523C505.29 127.442 493.697 119.779 490.113 115.086C488.091 112.439 487.871 111.549 487.64 110.601C487.348 109.366 486.839 108.192 486.137 107.134C483.825 103.319 478.231 99.3083 470.313 100.568C462.696 101.793 458.142 107.688 458.142 116.357C458.142 119.941 458.419 123.027 458.685 126.009C459.123 129.668 459.232 133.358 459.009 137.036C458.512 143.058 450.178 145.243 450.039 145.289C449.798 145.367 449.592 145.526 449.455 145.739C449.318 145.952 449.258 146.206 449.287 146.457C449.316 146.709 449.43 146.943 449.612 147.12C449.793 147.297 450.03 147.405 450.282 147.427C450.37 147.439 450.46 147.439 450.548 147.427C450.952 147.323 460.546 144.85 461.182 137.233C461.412 133.431 461.304 129.618 460.858 125.836C460.592 122.888 460.327 119.86 460.327 116.369C460.327 108.763 464.083 103.805 470.637 102.753C477.48 101.597 482.196 105.065 484.242 108.301C484.826 109.173 485.245 110.144 485.478 111.168C485.756 112.323 486.045 113.479 488.333 116.461C492.159 121.455 503.683 129.084 504.18 129.407C504.3 129.511 504.441 129.587 504.593 129.631C504.745 129.675 504.904 129.686 505.061 129.662C505.217 129.639 505.367 129.582 505.499 129.496C505.631 129.409 505.744 129.295 505.828 129.161C505.912 129.027 505.966 128.877 505.987 128.72C506.008 128.563 505.994 128.403 505.948 128.252C505.901 128.101 505.822 127.962 505.717 127.844C505.611 127.726 505.481 127.633 505.336 127.569L505.406 127.523Z" fill="#F3F5FC"/>
<path d="M472.498 128.044L471.954 127.35C467.701 122.056 465.366 119.143 468.834 113.48C470.047 111.492 471.4 110.509 472.856 110.567C475.006 110.659 477.537 113.017 479.306 116.566C480.311 118.577 482.924 121.686 487.293 126.079C487.375 126.242 487.495 126.383 487.642 126.49C487.789 126.598 487.96 126.67 488.14 126.699C488.32 126.728 488.504 126.714 488.678 126.658C488.852 126.603 489.01 126.507 489.139 126.378C489.268 126.25 489.366 126.092 489.423 125.919C489.48 125.746 489.495 125.561 489.467 125.381C489.439 125.201 489.369 125.03 489.262 124.882C489.156 124.734 489.016 124.613 488.853 124.53C483.698 119.34 481.918 116.797 481.282 115.583C479.086 111.191 475.977 108.498 472.949 108.371C471.353 108.313 469.019 108.937 466.961 112.335C462.684 119.352 465.805 123.305 470.232 128.76L470.787 129.454C475.411 135.233 491.05 148.098 491.708 148.641C491.902 148.805 492.148 148.895 492.402 148.896C492.565 148.892 492.725 148.855 492.873 148.785C493.02 148.715 493.151 148.615 493.257 148.491C493.429 148.261 493.51 147.974 493.482 147.688C493.454 147.401 493.32 147.135 493.107 146.942C492.945 146.78 476.994 133.65 472.498 128.044Z" fill="#F3F5FC"/>
<path d="M492.934 128.471C492.713 128.365 492.465 128.332 492.225 128.377C491.985 128.421 491.765 128.54 491.596 128.718C491.428 128.895 491.32 129.121 491.289 129.363C491.257 129.605 491.303 129.851 491.419 130.066C496.043 134.47 500.296 138.157 500.331 138.157C500.439 138.256 500.566 138.333 500.704 138.383C500.842 138.433 500.988 138.454 501.135 138.446C501.281 138.438 501.425 138.401 501.556 138.337C501.688 138.273 501.806 138.183 501.903 138.072C501.999 137.962 502.072 137.833 502.118 137.694C502.164 137.555 502.182 137.408 502.17 137.262C502.158 137.115 502.118 136.973 502.05 136.843C501.982 136.713 501.889 136.597 501.776 136.504C501.776 136.504 497.534 132.84 492.934 128.471Z" fill="#F3F5FC"/>
<path d="M497.407 141.417C497.268 141.301 482.773 129.858 479.156 125.177C476.981 122.323 475.286 119.133 474.139 115.733C474.107 115.586 474.045 115.447 473.957 115.325C473.869 115.203 473.757 115.101 473.627 115.024C473.498 114.947 473.354 114.897 473.205 114.878C473.055 114.859 472.904 114.871 472.759 114.913C472.615 114.955 472.481 115.027 472.365 115.123C472.249 115.219 472.154 115.338 472.086 115.472C472.018 115.607 471.979 115.754 471.97 115.904C471.961 116.054 471.984 116.204 472.035 116.346C473.24 120.009 475.053 123.444 477.399 126.506C481.19 131.465 495.453 142.688 496.054 143.15C496.251 143.298 496.49 143.379 496.736 143.382C496.903 143.377 497.067 143.337 497.217 143.263C497.366 143.189 497.498 143.084 497.603 142.954C497.693 142.841 497.758 142.711 497.797 142.572C497.835 142.432 497.846 142.287 497.827 142.144C497.809 142.001 497.762 141.863 497.69 141.738C497.618 141.613 497.522 141.504 497.407 141.417Z" fill="#F3F5FC"/>
<path d="M473.399 145.67C469.238 148.225 468.302 156.512 468.267 156.871C468.249 157.158 468.339 157.441 468.518 157.665C468.698 157.89 468.955 158.039 469.238 158.084H469.365C469.637 158.086 469.898 157.986 470.099 157.804C470.3 157.622 470.426 157.372 470.452 157.102C470.683 155.01 471.851 149.207 474.555 147.543C476.763 146.179 481.491 150.675 483.502 153.068C483.569 153.237 483.675 153.388 483.812 153.509C483.948 153.629 484.111 153.716 484.288 153.761C484.464 153.807 484.649 153.81 484.827 153.77C485.004 153.731 485.17 153.65 485.311 153.534C485.452 153.419 485.563 153.271 485.636 153.104C485.708 152.937 485.741 152.756 485.73 152.574C485.719 152.392 485.666 152.215 485.574 152.058C485.482 151.901 485.354 151.768 485.201 151.669C484.438 150.768 477.815 142.931 473.399 145.67Z" fill="#F3F5FC"/>
<path d="M465.597 132.851C465.323 132.937 465.09 133.122 464.945 133.37C464.8 133.618 464.752 133.911 464.811 134.192C465.554 137.72 465.269 141.387 463.99 144.757C462.881 147.787 460.622 150.259 457.702 151.634C457.501 151.756 457.342 151.936 457.246 152.15C457.15 152.364 457.121 152.603 457.164 152.834C457.206 153.065 457.318 153.277 457.485 153.443C457.651 153.609 457.864 153.72 458.095 153.761C458.225 153.76 458.354 153.736 458.477 153.692C461.969 152.103 464.688 149.193 466.036 145.601C467.51 141.797 467.823 137.642 466.938 133.661C466.857 133.382 466.674 133.144 466.425 132.994C466.177 132.844 465.881 132.793 465.597 132.851Z" fill="#F3F5FC"/>
<path d="M462.06 75.7634C468.857 74.122 479.179 73.1048 489.662 77.6012C489.801 77.6604 489.951 77.6918 490.102 77.6937C490.332 77.6548 490.545 77.5469 490.713 77.3843C490.881 77.2217 490.996 77.0121 491.042 76.783C491.089 76.5539 491.064 76.3161 490.973 76.1011C490.881 75.886 490.727 75.7038 490.529 75.5784C479.491 70.8393 468.672 71.9027 461.54 73.625C461.264 73.7061 461.028 73.8872 460.878 74.1331C460.729 74.3789 460.676 74.6717 460.731 74.9543C460.812 75.2304 460.993 75.4664 461.239 75.616C461.485 75.7656 461.778 75.8182 462.06 75.7634Z" fill="#F3F5FC"/>
<path d="M454.339 78.2134C454.502 78.2126 454.664 78.1772 454.813 78.1093C455.745 77.6693 456.702 77.2834 457.679 76.9535C457.947 76.8471 458.165 76.6448 458.291 76.3861C458.417 76.1275 458.442 75.8311 458.361 75.5549C458.316 75.4172 458.243 75.29 458.148 75.1808C458.052 75.0716 457.936 74.9826 457.806 74.919C457.675 74.8554 457.534 74.8186 457.389 74.8107C457.244 74.8028 457.099 74.8239 456.963 74.8729C455.91 75.2027 454.876 75.5886 453.865 76.0288C453.675 76.16 453.529 76.3449 453.445 76.5599C453.361 76.7749 453.344 77.01 453.395 77.235C453.446 77.46 453.563 77.6647 453.731 77.8225C453.899 77.9804 454.111 78.0843 454.339 78.1209V78.2134Z" fill="#F3F5FC"/>
<path d="M116.142 196.124H30.1335C27.8854 196.124 25.7292 195.232 24.1384 193.643C22.5477 192.055 21.6525 189.9 21.6494 187.652C21.6494 186.537 21.8689 185.434 22.2952 184.405C22.7216 183.376 23.3465 182.44 24.1344 181.652C24.9222 180.865 25.8575 180.24 26.8868 179.813C27.9161 179.387 29.0194 179.167 30.1335 179.167H116.142C118.392 179.167 120.55 180.061 122.141 181.652C123.732 183.243 124.626 185.401 124.626 187.652C124.623 189.9 123.728 192.055 122.137 193.643C120.546 195.232 118.39 196.124 116.142 196.124Z" fill="#F3F5FC" stroke="#263238" stroke-opacity="0.37" stroke-linecap="round" stroke-linejoin="round"/>
<path d="M33.1387 186.727L32.3527 181.688H35.0921L34.3061 186.727L38.8487 184.415L39.704 187.016L34.6991 187.871L38.2707 191.443L36.0746 193.061L33.7628 188.542L31.4511 193.061L29.2549 191.443L32.7457 187.883L27.7407 187.028L28.5961 184.427L33.1387 186.727Z" fill="#F3F5FC"/>
<path d="M52.916 186.727L52.1184 181.688H54.8694L54.0719 186.727L58.626 184.415L59.4813 187.016L54.4764 187.871L58.0481 191.443L55.8519 193.061L53.5402 188.542L51.2284 193.061L49.0207 191.443L52.6039 187.871L47.5874 187.016L48.4427 184.415L52.916 186.727Z" fill="#F3F5FC"/>
<path d="M72.6928 186.727L71.8952 181.688H74.6231L73.8486 186.727L78.4028 184.415L79.2581 187.016L74.2532 187.871L77.8248 191.443L75.6171 193.061L73.3054 188.542L70.9936 193.061L68.7859 191.443L72.3113 187.883L67.3064 187.028L68.1617 184.427L72.6928 186.727Z" fill="#F3F5FC"/>
<path d="M92.4695 186.727L91.672 181.688H94.423L93.6254 186.727L98.1796 184.415L99.0349 187.016L94.0184 187.871L97.5901 191.443L95.3939 193.061L93.0822 188.542L90.7704 193.061L88.5742 191.443L92.065 187.883L87.0601 187.028L87.9154 184.415L92.4695 186.727Z" fill="#F3F5FC"/>
<path d="M112.235 186.727L111.449 181.688H114.189L113.403 186.727L117.945 184.415L118.8 187.016L113.796 187.871L117.367 191.443L115.171 193.061L112.859 188.542L110.548 193.061L108.351 191.443L111.842 187.883L106.837 187.028L107.693 184.427L112.235 186.727Z" fill="#F3F5FC"/>
<path d="M486.495 249.352H460.153C458.085 249.352 456.408 251.029 456.408 253.097V279.439C456.408 281.508 458.085 283.184 460.153 283.184H486.495C488.564 283.184 490.24 281.508 490.24 279.439V253.097C490.24 251.029 488.564 249.352 486.495 249.352Z" fill="#F3F5FC" stroke="#263238" stroke-opacity="0.37" stroke-miterlimit="10"/>
<path d="M477.93 263.165C477.934 262.328 477.71 261.506 477.283 260.786C476.856 260.066 476.241 259.475 475.505 259.077C474.769 258.679 473.938 258.489 473.102 258.526C472.265 258.563 471.455 258.827 470.757 259.288C470.058 259.75 469.499 260.393 469.137 261.148C468.775 261.903 468.626 262.742 468.703 263.575C468.781 264.409 469.084 265.205 469.579 265.88C470.074 266.555 470.744 267.083 471.515 267.407V275.729H475.133V267.407C475.963 267.051 476.67 266.459 477.167 265.705C477.664 264.951 477.929 264.068 477.93 263.165Z" fill="#F3F5FC" stroke="#263238" stroke-opacity="0.37" stroke-miterlimit="10"/>
<path d="M487.27 249.144H482.646V238.013C482.646 236.226 481.936 234.512 480.673 233.248C479.409 231.984 477.695 231.274 475.908 231.274H470.325C468.539 231.277 466.826 231.988 465.563 233.251C464.3 234.515 463.589 236.227 463.586 238.013V249.144H458.963V238.013C458.966 235.001 460.164 232.112 462.294 229.982C464.424 227.852 467.312 226.654 470.325 226.651H475.908C478.92 226.654 481.809 227.852 483.939 229.982C486.069 232.112 487.267 235.001 487.27 238.013V249.144Z" fill="#F3F5FC" stroke="#263238" stroke-opacity="0.37" stroke-miterlimit="10"/>
<path d="M85.9043 99.7593H59.5619C57.4936 99.7593 55.8169 101.436 55.8169 103.504V129.847C55.8169 131.915 57.4936 133.592 59.5619 133.592H85.9043C87.9726 133.592 89.6493 131.915 89.6493 129.847V103.504C89.6493 101.436 87.9726 99.7593 85.9043 99.7593Z" fill="#F3F5FC" stroke="#263238" stroke-opacity="0.37" stroke-miterlimit="10"/>
<path d="M77.3392 113.572C77.3429 112.735 77.1192 111.912 76.6921 111.193C76.2649 110.473 75.6504 109.882 74.9139 109.484C74.1775 109.086 73.3468 108.896 72.5106 108.933C71.6743 108.97 70.8638 109.233 70.1656 109.695C69.4673 110.157 68.9075 110.799 68.5459 111.554C68.1843 112.309 68.0345 113.148 68.1123 113.982C68.1902 114.815 68.4929 115.612 68.9881 116.287C69.4833 116.962 70.1524 117.49 70.9241 117.814V126.067H74.542V117.814C75.3716 117.457 76.0785 116.865 76.5756 116.112C77.0727 115.358 77.3382 114.475 77.3392 113.572Z" fill="#F3F5FC" stroke="#263238" stroke-opacity="0.37" stroke-miterlimit="10"/>
<path d="M86.6787 99.5514H82.0552V88.4088C82.0521 86.6236 81.3408 84.9125 80.0774 83.6512C78.8139 82.39 77.1017 81.6816 75.3164 81.6816H69.7336C67.9483 81.6816 66.2361 82.39 64.9726 83.6512C63.7092 84.9125 62.9979 86.6236 62.9948 88.4088V99.5514H58.3713V88.4088C58.3775 85.3983 59.5769 82.513 61.7067 80.3853C63.8366 78.2576 66.7231 77.0612 69.7336 77.0581H75.3164C78.327 77.0612 81.2135 78.2576 83.3433 80.3853C85.4731 82.513 86.6726 85.3983 86.6787 88.4088V99.5514Z" fill="#F3F5FC" stroke="#263238" stroke-opacity="0.37" stroke-miterlimit="10"/>
<path d="M431.626 350.861C431.626 349.759 431.299 348.681 430.686 347.765C430.073 346.848 429.203 346.134 428.184 345.713C427.165 345.292 426.044 345.182 424.963 345.398C423.882 345.614 422.89 346.146 422.111 346.926C421.332 347.706 420.802 348.7 420.589 349.782C420.375 350.863 420.487 351.984 420.911 353.001C421.334 354.019 422.05 354.889 422.968 355.499C423.885 356.11 424.964 356.435 426.066 356.433C426.797 356.433 427.521 356.288 428.196 356.008C428.872 355.728 429.485 355.318 430.001 354.8C430.518 354.283 430.927 353.668 431.206 352.993C431.485 352.317 431.627 351.592 431.626 350.861Z" fill="#F3F5FC"/>
<path d="M478.023 350.861C478.023 349.759 477.696 348.682 477.084 347.766C476.472 346.85 475.602 346.136 474.583 345.714C473.565 345.292 472.445 345.182 471.365 345.397C470.284 345.612 469.291 346.143 468.512 346.922C467.733 347.701 467.202 348.694 466.987 349.774C466.772 350.855 466.883 351.975 467.304 352.993C467.726 354.011 468.44 354.882 469.356 355.494C470.272 356.106 471.35 356.433 472.451 356.433C473.929 356.433 475.346 355.846 476.391 354.801C477.436 353.756 478.023 352.339 478.023 350.861Z" fill="#F3F5FC"/>
<path d="M518.848 356.433C521.925 356.433 524.42 353.938 524.42 350.861C524.42 347.784 521.925 345.29 518.848 345.29C515.771 345.29 513.277 347.784 513.277 350.861C513.277 353.938 515.771 356.433 518.848 356.433Z" fill="#F3F5FC"/>
<path d="M431.626 386.115C431.626 385.013 431.299 383.935 430.686 383.019C430.073 382.102 429.203 381.388 428.184 380.967C427.165 380.546 426.044 380.436 424.963 380.652C423.882 380.868 422.89 381.4 422.111 382.18C421.332 382.96 420.802 383.954 420.589 385.035C420.375 386.117 420.487 387.238 420.911 388.255C421.334 389.273 422.05 390.142 422.968 390.753C423.885 391.364 424.964 391.689 426.066 391.687C426.797 391.687 427.521 391.542 428.196 391.262C428.872 390.982 429.485 390.572 430.001 390.054C430.518 389.537 430.927 388.922 431.206 388.246C431.485 387.571 431.627 386.846 431.626 386.115Z" fill="#F3F5FC"/>
<path d="M478.023 386.115C478.023 385.013 477.696 383.936 477.084 383.02C476.472 382.104 475.602 381.39 474.583 380.968C473.565 380.546 472.445 380.436 471.365 380.651C470.284 380.866 469.291 381.397 468.512 382.176C467.733 382.955 467.202 383.948 466.987 385.028C466.772 386.109 466.883 387.229 467.304 388.247C467.726 389.265 468.44 390.135 469.356 390.748C470.272 391.36 471.35 391.687 472.451 391.687C473.184 391.688 473.909 391.545 474.585 391.266C475.262 390.986 475.877 390.576 476.394 390.058C476.912 389.541 477.322 388.926 477.602 388.249C477.881 387.572 478.024 386.847 478.023 386.115Z" fill="#F3F5FC"/>
<path d="M524.42 386.115C524.42 385.013 524.093 383.936 523.481 383.02C522.869 382.104 521.998 381.39 520.98 380.968C519.962 380.546 518.842 380.436 517.762 380.651C516.681 380.866 515.688 381.397 514.909 382.176C514.13 382.955 513.599 383.948 513.384 385.028C513.169 386.109 513.28 387.229 513.701 388.247C514.123 389.265 514.837 390.135 515.753 390.748C516.669 391.36 517.747 391.687 518.848 391.687C519.58 391.688 520.306 391.545 520.982 391.266C521.659 390.986 522.274 390.576 522.791 390.058C523.309 389.541 523.719 388.926 523.999 388.249C524.278 387.572 524.421 386.847 524.42 386.115Z" fill="#F3F5FC"/>
<path d="M431.626 421.369C431.626 420.267 431.299 419.189 430.686 418.273C430.073 417.356 429.203 416.642 428.184 416.221C427.165 415.8 426.044 415.69 424.963 415.906C423.882 416.122 422.89 416.653 422.111 417.434C421.332 418.214 420.802 419.208 420.589 420.289C420.375 421.371 420.487 422.491 420.911 423.509C421.334 424.527 422.05 425.396 422.968 426.007C423.885 426.618 424.964 426.943 426.066 426.94C426.797 426.94 427.521 426.796 428.196 426.516C428.872 426.236 429.485 425.825 430.001 425.308C430.518 424.79 430.927 424.176 431.206 423.5C431.485 422.824 431.627 422.1 431.626 421.369Z" fill="#F3F5FC"/>
<path d="M478.023 421.369C478.023 420.267 477.696 419.19 477.084 418.274C476.472 417.358 475.602 416.644 474.583 416.222C473.565 415.8 472.445 415.69 471.365 415.905C470.284 416.12 469.291 416.65 468.512 417.43C467.733 418.209 467.202 419.202 466.987 420.282C466.772 421.363 466.883 422.483 467.304 423.501C467.726 424.519 468.44 425.389 469.356 426.002C470.272 426.614 471.35 426.94 472.451 426.94C473.929 426.94 475.346 426.354 476.391 425.309C477.436 424.264 478.023 422.847 478.023 421.369Z" fill="#F3F5FC"/>
<path d="M524.42 421.369C524.42 420.267 524.093 419.19 523.481 418.274C522.869 417.358 521.998 416.644 520.98 416.222C519.962 415.8 518.842 415.69 517.762 415.905C516.681 416.12 515.688 416.65 514.909 417.43C514.13 418.209 513.599 419.202 513.384 420.282C513.169 421.363 513.28 422.483 513.701 423.501C514.123 424.519 514.837 425.389 515.753 426.002C516.669 426.614 517.747 426.94 518.848 426.94C520.326 426.94 521.743 426.354 522.788 425.309C523.833 424.264 524.42 422.847 524.42 421.369Z" fill="#F3F5FC"/>
<path d="M313.126 222.085C313.126 222.085 307.497 226.374 307.497 227.715C307.497 229.055 312.317 230.396 312.317 230.396L315.784 222.617L313.126 222.085Z" fill="white" stroke="#263238" stroke-linejoin="round"/>
<path d="M317.148 211.359C317.148 211.359 312.86 219.67 313.126 221.01C313.392 222.351 313.658 224.478 312.86 225.033C312.063 225.588 309.635 229.864 309.635 231.737C309.635 233.609 307.231 243.816 308.029 244.879C308.826 245.943 313.889 248.104 313.889 248.104V252.392L337.758 252.127L339.098 245.422C339.098 245.422 330.244 244.348 327.297 240.591C324.35 236.834 325.147 226.651 324.072 220.213C322.997 213.775 320.096 211.891 317.148 211.359Z" fill="white" stroke="#263238" stroke-linejoin="round"/>
<path d="M338.601 207.868C338.601 207.868 329.493 204.4 322.778 204.4C316.062 204.4 315.276 207.082 315.276 209.764C315.276 212.445 318.489 214.861 318.489 214.861C318.489 214.861 315.022 219.415 315.276 221.288C315.433 222.356 315.521 223.433 315.542 224.513L312.86 232.292L314.201 232.823C314.201 232.823 316.073 230.685 317.958 231.217C319.842 231.748 320.096 237.123 319.564 238.73C319.034 239.992 318.309 241.162 317.414 242.197C317.414 242.197 320.096 246.763 321.437 247.838C322.778 248.913 327.343 250.254 330.834 250.254C334.325 250.254 338.07 250.254 339.145 249.179C340.6 247.543 341.861 245.743 342.901 243.816C343.167 243.007 350.68 235.493 351.212 226.374C351.744 217.254 348.265 209.486 338.601 207.868Z" fill="#263238" stroke="#263238" stroke-linejoin="round"/>
<path d="M317.957 231.205C318.698 231.91 319.241 232.795 319.535 233.774C319.829 234.753 319.863 235.792 319.633 236.788C319.009 240.556 316.963 243.064 315.553 243.376C314.143 243.689 311.947 241.966 312.571 241.18" fill="white"/>
<path d="M317.957 231.205C318.698 231.91 319.241 232.795 319.535 233.774C319.829 234.753 319.863 235.792 319.633 236.788C319.009 240.556 316.963 243.064 315.553 243.376C314.143 243.689 311.947 241.966 312.571 241.18" stroke="#263238" stroke-linecap="round" stroke-linejoin="round"/>
<path d="M356.263 503.575C356.263 503.575 356.055 516.29 356.471 519.387C356.887 522.485 356.471 524.797 358.136 525.629C361.775 527.034 365.734 527.394 369.567 526.669C373.728 525.629 375.601 525.421 375.601 522.508C375.601 519.595 373.104 510.233 373.104 508.984C373.104 507.736 372.272 502.743 372.272 502.743C372.272 502.743 360.84 505.655 356.263 503.575Z" fill="#92E3A9" stroke="#263238" stroke-linejoin="round"/>
<path d="M375.601 522.508C375.58 521.779 375.507 521.053 375.381 520.335C372.516 521.952 369.325 522.908 366.042 523.132C362.767 523.167 359.533 522.401 356.621 520.901C356.806 523.213 356.76 524.935 358.136 525.629C361.775 527.033 365.734 527.394 369.567 526.669C373.728 525.629 375.601 525.398 375.601 522.508Z" fill="white" stroke="#263238" stroke-linejoin="round"/>
<path d="M292.159 351.439C292.159 351.439 288.402 395.362 288.98 408.077C289.558 420.792 292.159 443.331 292.159 445.354C292.159 447.377 288.691 470.205 290.136 476.273C291.581 482.342 291.581 494.767 292.159 497.657C292.736 500.547 293.025 502.57 299.961 504.303C306.896 506.037 313.542 500.836 313.542 500.836C313.542 500.836 317.01 485.809 317.01 479.163C317.01 472.517 316.143 452 317.01 447.955C317.877 443.909 320.824 415.012 321.98 408.077C323.136 401.142 324.87 377.735 324.87 377.735L328.626 376.868C328.626 376.868 337.006 428.305 338.74 433.217C340.474 438.13 349.34 482.4 350.495 486.734C351.651 491.069 355.789 499.391 355.789 499.391C358.365 499.871 360.973 500.161 363.592 500.258C366.77 500.258 372.55 497.368 372.55 497.368C372.55 497.368 369.949 463.559 369.949 456.046C369.949 448.532 365.614 425.704 365.614 424.837C365.614 423.97 367.059 404.031 365.036 393.34C363.014 382.648 363.303 366.465 363.303 366.465L362.147 347.394L292.159 351.439Z" fill="#263238" stroke="#263238" stroke-linejoin="round"/>
<path d="M299.96 366.754V369.933L306.607 375.423L317.299 372.534" stroke="#7D7D7D" stroke-linejoin="round"/>
<path d="M358.91 363.865L359.199 368.488L350.819 373.401L341.283 371.956" stroke="#7D7D7D" stroke-linejoin="round"/>
<path d="M317.588 378.891L335.793 375.712" stroke="#7D7D7D" stroke-linejoin="round"/>
<path d="M344.462 431.772C344.462 431.772 351.975 429.171 358.621 429.46" stroke="#7D7D7D" stroke-linejoin="round"/>
<path d="M362.667 426.86C362.667 426.86 355.154 427.438 349.952 428.016" stroke="#7D7D7D" stroke-linejoin="round"/>
<path d="M300.018 446.509C300.018 446.509 307.243 445.065 311.866 447.376" stroke="#7D7D7D" stroke-linejoin="round"/>
<path d="M310.941 443.909C310.941 443.909 301.983 442.464 297.071 443.331" stroke="#7D7D7D" stroke-linejoin="round"/>
<path d="M292.829 503.783L290.332 508.152C290.332 508.152 284.922 508.152 283.466 511.897C282.936 513.235 282.772 514.69 282.991 516.113C283.211 517.535 283.806 518.873 284.714 519.989C285.755 521.029 294.285 523.734 296.366 524.612C298.446 525.491 302.399 527.941 307.185 527.941C308.114 527.947 309.034 527.758 309.886 527.385C310.738 527.013 311.502 526.466 312.128 525.779C312.755 525.092 313.23 524.282 313.524 523.4C313.817 522.518 313.922 521.584 313.831 520.659C313.415 517.746 312.166 507.759 312.166 507.759L292.829 503.783Z" fill="#92E3A9" stroke="#263238" stroke-linejoin="round"/>
<path d="M282.923 515.492C283.012 517.154 283.641 518.74 284.715 520.012C285.755 521.052 294.285 523.757 296.366 524.635C298.446 525.514 302.4 527.964 307.185 527.964C308.856 527.976 310.47 527.358 311.706 526.234C312.942 525.109 313.709 523.56 313.854 521.896C310.704 524.122 306.868 525.166 303.024 524.843C299.903 524.427 293.869 521.514 287.836 518.601C286.07 517.783 284.419 516.737 282.923 515.492Z" fill="white" stroke="#263238" stroke-linejoin="round"/>
<path d="M291.164 495.033C291.164 495.033 299.255 500.015 305.104 500.223C310.953 500.431 314.455 497.518 315.079 497.518C315.703 497.518 316.12 497.31 315.912 499.391C315.703 501.471 314.247 504.592 313.831 507.089C313.415 509.586 314.871 510.002 311.75 511.458C308.629 512.915 299.105 513.296 295.637 510.938C294.054 509.863 291.268 506.985 291.476 505.945C291.684 504.904 290.54 499.807 290.54 498.559C290.54 497.31 289.916 495.449 291.164 495.033Z" fill="white" stroke="#263238" stroke-linejoin="round"/>
<path d="M354.46 496.235C357.526 498.01 361.035 498.872 364.574 498.72C370.596 498.512 372.503 495.495 372.503 495.495C373.13 495.477 373.743 495.686 374.229 496.083C374.715 496.48 375.042 497.039 375.15 497.657C375.469 500.14 375.608 502.643 375.566 505.147C375.656 505.695 375.561 506.258 375.298 506.747C375.034 507.236 374.617 507.624 374.11 507.851C372.861 508.476 368.492 511.388 364.967 511.388C361.441 511.388 356.228 510.14 356.02 508.476C355.732 506.4 355.172 504.372 354.356 502.442C353.547 500.593 353.628 497.483 354.46 496.235Z" fill="white" stroke="#263238" stroke-linejoin="round"/>
<path d="M326.257 369.355C338.965 368.821 351.426 365.673 362.863 360.108L362.089 347.394L292.158 351.439C292.158 351.439 291.823 355.438 291.361 361.345C295.788 364.246 307.335 370.234 326.257 369.355Z" fill="white" stroke="#263238" stroke-linejoin="round"/>
<path d="M383.045 352.306C383.045 352.306 383.045 356.063 383.183 356.502C383.322 356.941 380.155 358.953 380.155 359.669C380.155 360.386 379.716 366.327 378.271 368.338C376.826 370.349 376.687 372.823 378.271 372.823C379.135 372.719 379.955 372.383 380.643 371.849C381.331 371.316 381.862 370.606 382.178 369.795C382.587 368.492 383.118 367.231 383.761 366.027L386.073 372.384C385.859 374.11 385.321 375.78 384.49 377.308C383.183 379.469 381.022 385.249 383.334 385.399C385.645 385.549 391.275 381.203 392.87 379.62C394.465 378.036 395.32 373.401 395.32 370.373C395.102 365.595 394.425 360.849 393.297 356.202C392.43 353.612 393.297 349.567 393.297 349.567C390.216 351.45 386.655 352.402 383.045 352.306Z" fill="white" stroke="#263238" stroke-linejoin="round"/>
<path d="M386.94 362.709C386.94 362.709 387.229 367.182 388.535 368.488C389.551 369.788 390.333 371.255 390.847 372.823V375.851C389.196 376.53 387.505 377.109 385.784 377.585C384.339 377.886 381.161 376.429 381.022 378.464C380.883 380.498 388.246 380.197 390.119 380.197C391.991 380.197 392.719 379.897 393.448 379.041C394.395 377.129 395.028 375.076 395.32 372.962" fill="white"/>
<path d="M386.94 362.709C386.94 362.709 387.229 367.182 388.535 368.488C389.551 369.788 390.333 371.255 390.847 372.823V375.851C389.196 376.53 387.505 377.109 385.784 377.585C384.339 377.886 381.161 376.429 381.022 378.464C380.883 380.498 388.246 380.197 390.119 380.197C391.991 380.197 392.719 379.897 393.448 379.041C394.395 377.129 395.028 375.076 395.32 372.962" stroke="#263238" stroke-linejoin="round"/>
<path d="M276.704 220.849C278.056 218.973 279.218 216.967 280.172 214.861C281.605 211.578 283.882 207.44 285.593 205.73C287.304 204.019 291.164 202.158 288.448 201.73C287.54 201.505 286.592 201.492 285.678 201.693C284.764 201.893 283.908 202.302 283.177 202.886C282.45 203.54 281.781 204.255 281.178 205.025C280.478 203.077 279.667 201.17 278.75 199.315C277.895 197.893 277.04 190.761 276.751 188.472C276.462 186.184 274.901 186.484 274.185 186.912C273.468 187.34 274.046 189.478 274.046 190.38C274.046 191.281 274.185 198.228 274.185 198.228C273.653 197.026 272.931 195.918 272.046 194.945C271.191 194.367 269.191 194.518 269.052 195.373C268.914 196.228 268.763 197.939 268.763 197.939C268.763 197.939 267.053 196.09 265.631 197.511C264.209 198.933 264.336 199.939 264.336 199.939C264.336 199.939 262.348 200.933 262.348 202.25C262.348 203.568 264.198 209.382 264.914 211.382C265.573 212.979 266.386 214.508 267.342 215.948L266.336 221.507C266.336 221.507 267.342 220.652 270.335 220.652C272.1 220.641 273.812 221.246 275.179 222.363L276.751 222.941L276.704 220.849Z" fill="white" stroke="#263238" stroke-linecap="round" stroke-linejoin="round"/>
<path d="M268.717 197.881L269.862 200.736" stroke="#263238" stroke-linecap="round" stroke-linejoin="round"/>
<path d="M264.29 199.881L266.29 203.013" stroke="#263238" stroke-linecap="round" stroke-linejoin="round"/>
<path d="M281.131 205.013L281.836 206.863" stroke="#263238" stroke-linecap="round" stroke-linejoin="round"/>
<path d="M343.942 258.565L344.473 254.808C344.473 254.808 344.739 251.595 336.382 248.636C328.025 245.677 315.993 248.104 311.704 249.977C308.311 251.335 304.813 252.414 301.244 253.202L301.51 257.224C301.51 257.224 288.645 253.467 286.483 253.467C284.322 253.467 278.704 250.254 278.704 250.254L275.757 246.786L277.098 220.768C276.148 219.726 274.986 218.9 273.69 218.346C272.393 217.792 270.994 217.522 269.584 217.554C265.03 217.82 261.274 223.449 261.274 223.449C261.274 223.449 257.517 247.861 256.974 252.15C256.649 255.757 257.598 259.364 259.655 262.344C260.996 264.217 286.749 293.183 286.749 293.183C286.749 293.183 285.408 341.996 285.408 343.071C285.394 343.356 285.352 343.638 285.281 343.914C285.037 344.554 284.922 345.237 284.944 345.921C284.966 346.606 285.124 347.279 285.408 347.902C286.483 349.775 295.615 358.71 316.259 360.235C327.031 361.033 334.753 359.438 344.947 357.022C351.726 355.227 358.162 352.325 363.996 348.434L363.73 344.677C363.73 344.677 363.996 342.262 363.996 338.239C363.996 334.217 360.771 317.861 360.771 316.786V310.082C360.771 310.082 370.434 321.352 370.966 322.149C371.498 322.947 377.67 352.722 377.67 352.722C377.67 352.722 380.895 354.063 387.056 353.531C388.925 353.311 390.719 352.665 392.3 351.643C393.881 350.621 395.207 349.25 396.176 347.636C396.176 347.636 390.547 311.955 389.737 309.007C388.928 306.06 373.648 282.988 373.648 281.925C373.648 280.862 369.094 267.442 366.412 266.101C363.73 264.76 343.942 258.565 343.942 258.565Z" fill="#92E3A9" stroke="#263238" stroke-linejoin="round"/>
<path d="M360.864 310.058L361.407 281.901" stroke="#263238" stroke-linejoin="round"/>
<path d="M361.407 296.107C361.407 296.107 365.695 283.774 365.695 282.433" stroke="#263238" stroke-linejoin="round"/>
<path d="M313.889 273.336C317.356 281.994 323.263 295.448 328.453 302.545" stroke="#263238" stroke-linejoin="round"/>
<path d="M310.71 265.326C310.71 265.326 311.438 267.303 312.664 270.4" stroke="#263238" stroke-linejoin="round"/>
<path d="M326.603 304.846C327.374 305.853 328.232 306.789 329.169 307.643" stroke="#263238" stroke-linejoin="round"/>
<path d="M312.594 281.625C312.594 281.625 318.859 293.703 324.349 301.702" stroke="#263238" stroke-linejoin="round"/>
<path d="M278.565 275.267L276.924 271.707" stroke="#263238" stroke-linejoin="round"/>
<path d="M284.16 280.827L286.841 293.16L279.929 278.214" stroke="#263238" stroke-linejoin="round"/>
<path d="M268.105 248.774C267.337 249.305 266.607 249.888 265.92 250.52" stroke="#263238" stroke-linejoin="round"/>
<path d="M275.849 246.763C275.849 246.763 273.78 245.931 270.428 247.445" stroke="#263238" stroke-linejoin="round"/>
<path d="M269.411 244.613C269.411 244.613 263.504 247.029 262.476 250.254" stroke="#263238" stroke-linejoin="round"/>
<path d="M305.347 257.235C305.347 257.235 326.8 249.456 341.56 257.767" stroke="#263238" stroke-linejoin="round"/>
<path d="M329.216 256.681C333.062 256.803 336.865 257.528 340.485 258.831" stroke="#263238" stroke-linejoin="round"/>
<path d="M357.812 345.59C359.507 344.844 361.156 343.995 362.748 343.047" stroke="#263238" stroke-linejoin="round"/>
<path d="M310.421 354.456C314.364 354.735 318.322 354.688 322.257 354.317C332.98 353.462 343.533 351.128 353.616 347.382" stroke="#263238" stroke-linejoin="round"/>
<path d="M287.107 344.931C287.107 344.931 292.124 351.866 306.33 353.993" stroke="#263238" stroke-linejoin="round"/>
</svg>
